<svg width="52" height="52" viewBox="0 0 52 52" fill="none" xmlns="http://www.w3.org/2000/svg">
<path id="Vector" d="M50.5328 34.6103C52.4911 29.0311 52.489 22.9511 50.527 17.3733C50.5153 17.3325 50.5011 17.2924 50.4846 17.2532C48.6807 12.2038 45.3598 7.83555 40.9768 4.74689C36.5938 1.65823 31.363 0.00022237 26.001 2.23664e-08C20.6391 -0.000222325 15.4082 1.65735 11.0249 4.74565C6.6416 7.83395 3.32034 12.2019 1.51607 17.2512C1.49778 17.2938 1.48234 17.3376 1.46986 17.3823C-0.492738 22.9682 -0.489872 29.0568 1.47799 34.6409C1.48835 34.6757 1.50047 34.71 1.5143 34.7436C3.31752 39.7934 6.63797 44.1622 11.0208 47.2514C15.4035 50.3406 20.6343 51.9993 25.9964 52C31.3585 52.0007 36.5897 50.3436 40.9733 47.2556C45.357 44.1675 48.6787 39.7997 50.4833 34.7504C50.5031 34.7049 50.5197 34.6581 50.5328 34.6103ZM26 48.8878C22.2474 45.3678 19.4727 40.6362 17.9556 35.36H34.0444C32.5273 40.6362 29.7526 45.3678 26 48.8878ZM17.4277 33.28C16.3775 28.4835 16.3774 23.5165 17.4276 18.72H34.5724C35.6226 23.5165 35.6225 28.4835 34.5723 33.28H17.4277ZM2.08 26C2.07835 23.5292 2.46094 21.0732 3.21407 18.72H15.2779C14.3207 23.5261 14.3207 28.4739 15.278 33.28H3.21407C2.46094 30.9268 2.07835 28.4708 2.08 26ZM26 3.11212C29.7531 6.63215 32.5278 11.3636 34.0446 16.64H17.9554C19.4722 11.3636 22.2469 6.63215 26 3.11212ZM36.7221 18.72H48.7859C50.298 23.4555 50.298 28.5444 48.7859 33.28H36.722C37.6793 28.4739 37.6793 23.5261 36.7221 18.72ZM48.0118 16.64H36.2347C34.751 11.0476 31.9365 6.04658 28.0151 2.16569C32.3476 2.53795 36.4972 4.08156 40.0196 6.63124C43.5421 9.18093 46.3047 12.6407 48.0118 16.64ZM23.9849 2.1657C20.0636 6.04659 17.249 11.0476 15.7653 16.64H3.98823C5.69526 12.6407 8.45791 9.18094 11.9804 6.63125C15.5028 4.08157 19.6524 2.53796 23.9849 2.1657ZM3.98823 35.36H15.7653C17.2491 40.9523 20.0635 45.9533 23.9849 49.8343C19.6524 49.462 15.5028 47.9184 11.9804 45.3687C8.4579 42.8191 5.69526 39.3593 3.98823 35.36ZM28.0151 49.8343C31.9364 45.9533 34.7509 40.9523 36.2347 35.36H48.0118C46.3047 39.3593 43.5421 42.8191 40.0196 45.3687C36.4972 47.9184 32.3476 49.462 28.0151 49.8343Z" fill="white"/>
</svg>
