<svg width="280" height="112" viewBox="0 0 280 112" fill="none" xmlns="http://www.w3.org/2000/svg">
<path d="M47.2927 6.91772C33.2472 22.2697 11.8992 42.7913 7.65713 64.0015C3.07327 86.9208 51.3947 90.8204 63.2751 88.1049C89.67 82.0718 130.51 71.2863 147.501 47.5C150.206 43.7128 163.618 23.1277 155.536 22.3196C139.738 20.7398 130.259 20.3071 117.301 31.0437C107.579 39.0994 95.2841 48.9782 93.0674 62.2782C90.2478 79.1955 100.082 99.6343 117.947 102.991C179.989 114.647 228.441 65.6093 264.426 22.4273" stroke="#8CDD5F" stroke-width="13" stroke-linecap="round"/>
<path d="M258.611 20.4885C250.06 20.4885 242.809 25.8654 234.7 28.0278C225.856 30.3862 249.532 20.4524 251.718 19.6268C253.384 18.9975 269.717 11.6916 271.751 15.534C273.552 18.937 272.182 26.4487 272.182 30.1819" stroke="#8CDD5F" stroke-width="13" stroke-linecap="round"/>
</svg>
