<svg width="255" height="623" viewBox="0 0 255 623" fill="none" xmlns="http://www.w3.org/2000/svg">
<path d="M43.6024 12.3048C45.8935 3.14044 106.65 8.46107 112.232 9.25458C145.488 13.9821 179.342 24.4893 211.618 33.6562C224.228 37.2379 235.343 43.6236 242.12 55.2618C254.889 77.1914 244.996 109.915 238.053 132.025C224.614 174.818 206.714 213.908 174.507 245.645C156.387 263.5 139.866 282.868 124.433 303.091C114.176 316.53 101.278 331.052 98.506 348.335C92.2017 387.644 126.32 420.454 131.804 457.888C139.172 508.181 109.777 542.962 73.596 573.288C53.4478 590.175 25.2798 597.965 7 616.245" stroke="#8CDD5F" stroke-width="13" stroke-linecap="round"/>
<path d="M45.889 21.4553C42.8914 25.4521 57.2631 23.743 58.8523 23.743C77.3213 23.743 95.796 23.6031 114.264 23.743C118.361 23.774 136.291 21.9045 134.599 30.6059C132.669 40.5293 120.051 47.7791 112.739 52.9741C99.421 62.437 86.3442 72.1156 71.5615 79.155C56.877 86.1475 82.7434 80.9379 85.7958 80.4259C104.947 77.2134 123.919 72.1046 143.241 70.0043C152.676 68.9788 161.205 67.9915 149.342 75.5964C141.203 80.8134 79.2437 120.801 85.1603 127.704C89.7856 133.1 116.426 120.02 121 118.426C144.289 110.315 168.146 99.4505 192.553 95.1685C199.778 93.9009 195.479 100.944 193.061 104.319C178.637 124.452 159.904 142.435 141.208 158.46C119.901 176.723 97.7493 193.481 74.6117 209.297C60.4464 218.979 103.199 208.594 106.893 207.899C128.077 203.914 150.081 200.996 171.71 202.307C182.997 202.991 158.65 223.109 156.967 224.675C140.453 240.042 124.22 257.39 105.749 270.428C103.556 271.976 94.7436 275.979 94.0567 279.07C91.5151 290.507 85.0332 303.596 85.0332 315.291C85.0332 323.979 90.0605 329.437 96.0902 334.863C108.455 345.991 95.5668 356.863 88.3376 367.907C81.5152 378.33 82.4914 388.124 82.4914 399.934C82.4914 417.714 76.7336 435.205 78.1703 452.805C79.5884 470.177 99.836 488.797 93.4213 506.437C89.2601 517.881 70.3409 521.999 60.5045 524.738C43.463 529.484 27.6411 535.736 11.5742 543.04" stroke="#8CDD5F" stroke-width="13" stroke-linecap="round"/>
</svg>
