<svg width="638" height="618" viewBox="0 0 638 618" fill="none" xmlns="http://www.w3.org/2000/svg">
<path d="M634 308.959C634 477.263 493.091 613.918 319 613.918C144.909 613.918 4 477.263 4 308.959C4 140.654 144.909 4 319 4C493.091 4 634 140.654 634 308.959Z" stroke="#00FF47" stroke-width="8"/>
<path d="M582.876 309.95C582.876 450.363 465.313 564.406 320.02 564.406C174.727 564.406 57.1641 450.363 57.1641 309.95C57.1641 169.538 174.727 55.4941 320.02 55.4941C465.313 55.4941 582.876 169.538 582.876 309.95Z" stroke="#00FF47" stroke-width="8"/>
<rect x="284.234" y="522.854" width="67.4808" height="69.3177" fill="#19592A"/>
<line x1="352.5" y1="558" x2="352.5" y2="607.513" stroke="#00FF38" stroke-width="7"/>
<line y1="-3.5" x2="51.4909" y2="-3.5" transform="matrix(-0.00899377 0.99996 -0.999964 -0.00843653 278.461 558)" stroke="#00FF38" stroke-width="7"/>
<line x1="322.633" y1="617.918" x2="322.633" y2="275.291" stroke="#00FF38" stroke-width="5"/>
<path d="M399.209 144.622C399.235 143.242 398.138 142.102 396.758 142.077C395.377 142.052 394.236 143.15 394.209 144.531L399.209 144.622ZM397.164 249.589L399.209 144.622L394.209 144.531L392.164 249.497L397.164 249.589Z" fill="#00FF38"/>
<path d="M249.927 146.602C249.954 145.222 248.857 144.082 247.476 144.057C246.096 144.032 244.955 145.131 244.928 146.511L249.927 146.602ZM247.882 251.569L249.927 146.602L244.928 146.511L242.883 251.478L247.882 251.569Z" fill="#00FF38"/>
<path d="M357.852 209.934L357.852 112.889" stroke="#00FF38" stroke-width="5" stroke-linecap="round"/>
<path d="M319.445 176.273L320.604 85.1556" stroke="#00FF38" stroke-width="5" stroke-linecap="round"/>
<path d="M357.852 209.934L357.852 112.889" stroke="#00FF38" stroke-width="5" stroke-linecap="round"/>
<path d="M276.055 213.895L276.055 112.889" stroke="#00FF38" stroke-width="5" stroke-linecap="round"/>
<rect x="2.15478" y="-0.0275846" width="109.167" height="109.258" transform="matrix(0.709354 -0.704853 0.727165 0.686463 239.896 448.946)" stroke="#00FF38" stroke-width="3"/>
<rect x="2.15478" y="-0.0275846" width="109.167" height="109.258" transform="matrix(0.709354 -0.704853 0.727165 0.686463 239.896 355.862)" stroke="#00FF38" stroke-width="3"/>
<rect x="2.15478" y="-0.0275846" width="109.167" height="109.258" transform="matrix(0.709354 -0.704853 0.727165 0.686463 239.896 252.875)" stroke="#00FF38" stroke-width="3"/>
<rect x="292" y="368" width="28" height="28" fill="#1A572B"/>
<rect width="10.067" height="8.96053" transform="matrix(0.723281 0.690554 -0.713324 0.700835 294.68 390.16)" fill="#175C2F"/>
<rect width="28.5262" height="7.42111" transform="matrix(0.723281 0.690554 -0.713324 0.700835 330.438 377.418)" fill="#1A572B"/>
<rect width="11.3129" height="7.52245" transform="matrix(-0.00632114 0.99998 -0.999982 -0.00592948 332.719 374.359)" fill="#175C2F"/>
<rect width="47.4275" height="37.0032" transform="matrix(0.724791 0.688968 -0.711785 0.702397 312.734 265.387)" fill="#1A572B"/>
<rect x="319" y="273.309" width="10.2244" height="5.94152" fill="#1A572B"/>
</svg>
