<svg width="114" height="489" viewBox="0 0 114 489" fill="none" xmlns="http://www.w3.org/2000/svg">
<path d="M104.89 9.06087C87.1716 2.33571 64.6031 4.52149 47.1413 11.5328C31.985 17.6185 5 30.1402 5 51.4646C5 59.9648 7.43659 67.3264 11.59 74.4728C20.6936 90.1366 32.0107 104.512 41.7652 119.729C56.0244 141.973 66.7175 165.052 52.1705 191.035C41.0572 210.886 15.9727 222.574 9.50894 244.848C2.28921 269.728 12.9888 300.447 18.18 324.331C22.3303 343.426 23.4549 363.081 29.1055 381.757C36.2216 405.276 46.813 424.523 59.4542 444.887C67.2869 457.505 75.3313 469.627 81.4786 483.108" stroke="#8CDD5F" stroke-width="10" stroke-linecap="round"/>
<path d="M31.5297 41.5767C24.8751 42.1604 18.1018 43.0979 11.4128 43.0979C6.57766 43.0979 20.626 39.8734 25.1998 38.154C39.8226 32.6568 55.028 28.9177 70.0291 24.8434C97.554 17.3676 59.7367 47.9383 53.3807 52.7005C44.1061 59.6496 31.9431 68.8257 50.9528 68.9585C69.3331 69.0868 87.364 64.8751 105.667 63.9195C116.934 63.3312 96.1945 73.9937 93.9612 75.4236C85.2145 81.0239 68.2851 90.0867 63.4391 100.714C61.2196 105.581 111.36 100.551 105.06 114.975C100.656 125.058 91.8445 133.544 84.8566 141.501C79.6523 147.427 78.2009 153.882 71.85 159.851C64.7497 166.524 53.7424 173.602 50.9528 184.19C49.2728 190.567 70.8106 187.599 73.8444 189.514C76.3069 191.069 53.0528 207.744 51.2129 209.385C49.3222 211.072 29.3673 228.725 33.524 229.636C42.5444 231.614 55.1447 225.361 49.2186 241.901C48.1879 244.777 41.6397 253.849 44.3628 257.208C49.1872 263.159 70.1246 258.49 77.1394 259.3C90.5613 260.849 83.0615 266.915 75.8387 272.04C67.3594 278.056 61.7613 286.226 54.9415 294.097C53.761 295.46 65.4106 295.35 67.8614 295.809C77.8581 297.68 74.1037 300.962 68.8152 307.123C65.1229 311.424 53.8767 321.359 55.2883 328.325C56.2871 333.252 67.5797 334.875 71.0696 335.931C85.7963 340.385 65.1495 356.368 63.0923 364.263C60.5215 374.129 68.4355 379.274 68.9019 388.222C69.6799 403.151 74.8842 419.66 89.2788 424.921" stroke="#8CDD5F" stroke-width="10" stroke-linecap="round"/>
</svg>
