<svg width="62" height="100" viewBox="0 0 62 100" fill="none" xmlns="http://www.w3.org/2000/svg">
<path d="M31.5 99.625C25.6667 99.625 20.4167 98.375 15.75 95.875C11.1667 93.2917 7.54167 89.7917 4.875 85.375C2.20833 80.9583 0.875 75.9583 0.875 70.375C0.875 68.9583 1.29167 67.75 2.125 66.75C2.95833 65.75 4.08333 65.25 5.5 65.25C6.91667 65.25 8.04167 65.75 8.875 66.75C9.70833 67.75 10.125 68.9583 10.125 70.375C10.125 74.2083 11.0417 77.6667 12.875 80.75C14.7083 83.75 17.2083 86.1667 20.375 88C23.625 89.75 27.2083 90.625 31.125 90.625C37.625 90.625 42.7083 88.8333 46.375 85.25C50.0417 81.5833 51.875 76.875 51.875 71.125C51.875 67.0417 51 63.5 49.25 60.5C47.5 57.4167 45.125 55.0417 42.125 53.375C39.125 51.625 35.75 50.75 32 50.75C30.6667 50.75 29.5417 50.2917 28.625 49.375C27.7083 48.4583 27.25 47.2917 27.25 45.875C27.25 44.5417 27.7083 43.4167 28.625 42.5C29.5417 41.5833 30.6667 41.125 32 41.125C34.9167 41.125 37.5833 40.4167 40 39C42.5 37.5 44.5 35.5417 46 33.125C47.5 30.7083 48.25 28.0417 48.25 25.125C48.25 20.7083 46.75 17.0417 43.75 14.125C40.75 11.125 36.75 9.625 31.75 9.625C28.25 9.625 25.125 10.3333 22.375 11.75C19.625 13.0833 17.4583 14.9167 15.875 17.25C14.375 19.5 13.625 22.0833 13.625 25C13.625 26.4167 13.1667 27.625 12.25 28.625C11.4167 29.5417 10.3333 30 9 30C7.58333 30 6.45833 29.5417 5.625 28.625C4.79167 27.625 4.375 26.4583 4.375 25.125C4.375 20.5417 5.54167 16.4167 7.875 12.75C10.2917 9 13.5417 6.08333 17.625 3.99999C21.7083 1.83333 26.4167 0.749998 31.75 0.749998C36.5833 0.749998 40.9167 1.83333 44.75 3.99999C48.6667 6.08333 51.75 9 54 12.75C56.3333 16.4167 57.5 20.5417 57.5 25.125C57.5 27.9583 56.7917 30.7083 55.375 33.375C54.0417 36.0417 52.25 38.4583 50 40.625C47.75 42.7083 45.2917 44.3333 42.625 45.5C46.875 46.75 50.4167 48.6667 53.25 51.25C56.0833 53.8333 58.1667 56.875 59.5 60.375C60.8333 63.7917 61.5 67.375 61.5 71.125C61.5 76.625 60.1667 81.5417 57.5 85.875C54.9167 90.125 51.3333 93.5 46.75 96C42.1667 98.4167 37.0833 99.625 31.5 99.625Z" fill="#3ABC8F"/>
</svg>
