<svg width="64" height="119" viewBox="0 0 64 119" fill="none" xmlns="http://www.w3.org/2000/svg">
<path d="M59.5 4L4.70711 58.7929C4.31658 59.1834 4.31658 59.8166 4.70711 60.2071L59.5 115" stroke="#B1B1B1" stroke-width="8" stroke-linecap="round"/>
<path d="M59.5 4L4.70711 58.7929C4.31658 59.1834 4.31658 59.8166 4.70711 60.2071L59.5 115" stroke="#B1B1B1" stroke-width="8" stroke-linecap="round"/>
<path d="M59.5 4L4.70711 58.7929C4.31658 59.1834 4.31658 59.8166 4.70711 60.2071L59.5 115" stroke="#B1B1B1" stroke-width="8" stroke-linecap="round"/>
<path d="M59.5 4L4.70711 58.7929C4.31658 59.1834 4.31658 59.8166 4.70711 60.2071L59.5 115" stroke="#B1B1B1" stroke-width="8" stroke-linecap="round"/>
<path d="M31.5 35L7.70711 58.7929C7.31658 59.1834 7.31658 59.8166 7.70711 60.2071L31.5 84" stroke="#B1B1B1" stroke-width="7" stroke-linecap="round"/>
<path d="M31.5 35L7.70711 58.7929C7.31658 59.1834 7.31658 59.8166 7.70711 60.2071L31.5 84" stroke="#B1B1B1" stroke-width="7" stroke-linecap="round"/>
<path d="M31.5 35L7.70711 58.7929C7.31658 59.1834 7.31658 59.8166 7.70711 60.2071L31.5 84" stroke="#B1B1B1" stroke-width="7" stroke-linecap="round"/>
<path d="M31.5 35L7.70711 58.7929C7.31658 59.1834 7.31658 59.8166 7.70711 60.2071L31.5 84" stroke="#010F59" stroke-width="7" stroke-linecap="round" style="mix-blend-mode:plus-darker"/>
</svg>
