<svg width="64" height="119" viewBox="0 0 64 119" fill="none" xmlns="http://www.w3.org/2000/svg">
<path d="M4 115L58.7929 60.2071C59.1834 59.8166 59.1834 59.1834 58.7929 58.7929L4 4" stroke="#B1B1B1" stroke-width="8" stroke-linecap="round"/>
<path d="M4 115L58.7929 60.2071C59.1834 59.8166 59.1834 59.1834 58.7929 58.7929L4 4" stroke="#B1B1B1" stroke-width="8" stroke-linecap="round"/>
<path d="M4 115L58.7929 60.2071C59.1834 59.8166 59.1834 59.1834 58.7929 58.7929L4 4" stroke="#B1B1B1" stroke-width="8" stroke-linecap="round"/>
<path d="M4 115L58.7929 60.2071C59.1834 59.8166 59.1834 59.1834 58.7929 58.7929L4 4" stroke="#B1B1B1" stroke-width="8" stroke-linecap="round"/>
<path d="M32 84L55.7929 60.2071C56.1834 59.8166 56.1834 59.1834 55.7929 58.7929L32 35" stroke="#B1B1B1" stroke-width="7" stroke-linecap="round"/>
<path d="M32 84L55.7929 60.2071C56.1834 59.8166 56.1834 59.1834 55.7929 58.7929L32 35" stroke="#B1B1B1" stroke-width="7" stroke-linecap="round"/>
<path d="M32 84L55.7929 60.2071C56.1834 59.8166 56.1834 59.1834 55.7929 58.7929L32 35" stroke="#B1B1B1" stroke-width="7" stroke-linecap="round"/>
<path d="M32 84L55.7929 60.2071C56.1834 59.8166 56.1834 59.1834 55.7929 58.7929L32 35" stroke="#010F59" stroke-width="7" stroke-linecap="round" style="mix-blend-mode:plus-darker"/>
</svg>
