<svg width="616" height="268" viewBox="0 0 616 268" fill="none" xmlns="http://www.w3.org/2000/svg">
<path d="M23.694 243C22.594 243 21.802 242.45 21.318 241.35L1.716 195.48C1.232 194.248 1.188 193.28 1.584 192.576C2.024 191.828 2.772 191.454 3.828 191.454C4.928 191.454 5.72 192.004 6.204 193.104L24.42 236.664H22.968L41.118 193.236C41.382 192.576 41.712 192.114 42.108 191.85C42.504 191.586 43.032 191.454 43.692 191.454C44.704 191.454 45.386 191.85 45.738 192.642C46.09 193.39 46.068 194.248 45.672 195.216L26.004 241.35C25.74 241.966 25.41 242.406 25.014 242.67C24.618 242.89 24.178 243 23.694 243ZM58.3981 243C57.6501 243 57.0341 242.758 56.5501 242.274C56.0661 241.79 55.8241 241.174 55.8241 240.426V194.028C55.8241 193.28 56.0661 192.664 56.5501 192.18C57.0341 191.696 57.6501 191.454 58.3981 191.454C59.1461 191.454 59.7621 191.696 60.2461 192.18C60.7301 192.664 60.9721 193.28 60.9721 194.028V240.426C60.9721 241.174 60.7301 241.79 60.2461 242.274C59.7621 242.758 59.1461 243 58.3981 243ZM78.7473 243C77.9993 243 77.3833 242.758 76.8993 242.274C76.4153 241.79 76.1733 241.174 76.1733 240.426V194.028C76.1733 193.28 76.4153 192.664 76.8993 192.18C77.3833 191.696 77.9993 191.454 78.7473 191.454H109.701C110.405 191.454 110.999 191.696 111.483 192.18C112.011 192.62 112.275 193.214 112.275 193.962C112.275 194.622 112.011 195.194 111.483 195.678C110.999 196.162 110.405 196.404 109.701 196.404H81.3213V214.62H101.979C102.727 214.62 103.343 214.862 103.827 215.346C104.311 215.83 104.553 216.424 104.553 217.128C104.553 217.832 104.311 218.426 103.827 218.91C103.343 219.394 102.727 219.636 101.979 219.636H81.3213V238.05H109.701C110.405 238.05 110.999 238.292 111.483 238.776C112.011 239.26 112.275 239.832 112.275 240.492C112.275 241.24 112.011 241.856 111.483 242.34C110.999 242.78 110.405 243 109.701 243H78.7473ZM134.873 243C134.257 243 133.707 242.802 133.223 242.406C132.783 242.01 132.475 241.504 132.299 240.888L118.769 195.15C118.461 194.094 118.505 193.214 118.901 192.51C119.341 191.806 120.023 191.454 120.947 191.454C121.475 191.454 121.959 191.608 122.399 191.916C122.883 192.18 123.235 192.686 123.455 193.434L135.665 235.938H134.147L145.697 194.556C145.829 194.072 146.115 193.676 146.555 193.368C147.039 193.06 147.567 192.906 148.139 192.906C148.667 192.906 149.173 193.06 149.657 193.368C150.141 193.632 150.449 194.05 150.581 194.622L162.197 235.938H160.679L172.955 193.17C173.263 192.026 174.099 191.454 175.463 191.454C176.387 191.454 177.025 191.828 177.377 192.576C177.729 193.28 177.773 194.138 177.509 195.15L164.045 240.822C163.825 241.526 163.473 242.076 162.989 242.472C162.549 242.824 162.021 243 161.405 243C160.789 243 160.239 242.802 159.755 242.406C159.315 242.01 159.007 241.504 158.831 240.888L147.347 198.978H148.931L137.513 240.822C137.293 241.482 136.941 242.01 136.457 242.406C136.017 242.802 135.489 243 134.873 243ZM224.068 243C223.364 243 222.748 242.758 222.22 242.274C221.736 241.746 221.494 241.13 221.494 240.426V191.454H226.642V240.426C226.642 241.13 226.4 241.746 225.916 242.274C225.432 242.758 224.816 243 224.068 243ZM205.852 196.14C205.148 196.14 204.576 195.92 204.136 195.48C203.696 195.04 203.476 194.49 203.476 193.83C203.476 193.126 203.696 192.554 204.136 192.114C204.576 191.674 205.148 191.454 205.852 191.454H242.35C243.054 191.454 243.626 191.674 244.066 192.114C244.506 192.554 244.726 193.126 244.726 193.83C244.726 194.49 244.506 195.04 244.066 195.48C243.626 195.92 243.054 196.14 242.35 196.14H205.852ZM256.888 243C256.14 243 255.524 242.758 255.04 242.274C254.556 241.79 254.314 241.174 254.314 240.426V194.028C254.314 193.28 254.556 192.664 255.04 192.18C255.524 191.696 256.14 191.454 256.888 191.454H269.23C272.442 191.454 275.302 192.136 277.81 193.5C280.318 194.82 282.276 196.69 283.684 199.11C285.136 201.486 285.862 204.236 285.862 207.36C285.862 210.352 285.136 213.014 283.684 215.346C282.276 217.678 280.318 219.504 277.81 220.824C275.302 222.144 272.442 222.804 269.23 222.804H259.462V240.426C259.462 241.174 259.22 241.79 258.736 242.274C258.252 242.758 257.636 243 256.888 243ZM284.476 243C283.904 243 283.442 242.89 283.09 242.67C282.782 242.45 282.496 242.12 282.232 241.68L269.56 221.484L274.708 220.164L286.522 239.04C287.182 240.096 287.292 241.02 286.852 241.812C286.456 242.604 285.664 243 284.476 243ZM259.462 217.854H269.23C271.474 217.854 273.454 217.414 275.17 216.534C276.93 215.61 278.316 214.356 279.328 212.772C280.34 211.188 280.846 209.384 280.846 207.36C280.846 205.204 280.34 203.312 279.328 201.684C278.316 200.012 276.93 198.714 275.17 197.79C273.454 196.866 271.474 196.404 269.23 196.404H259.462V217.854ZM299.667 243C298.919 243 298.303 242.758 297.819 242.274C297.335 241.79 297.093 241.174 297.093 240.426V194.028C297.093 193.28 297.335 192.664 297.819 192.18C298.303 191.696 298.919 191.454 299.667 191.454H330.621C331.325 191.454 331.919 191.696 332.403 192.18C332.931 192.62 333.195 193.214 333.195 193.962C333.195 194.622 332.931 195.194 332.403 195.678C331.919 196.162 331.325 196.404 330.621 196.404H302.241V214.62H322.899C323.647 214.62 324.263 214.862 324.747 215.346C325.231 215.83 325.473 216.424 325.473 217.128C325.473 217.832 325.231 218.426 324.747 218.91C324.263 219.394 323.647 219.636 322.899 219.636H302.241V238.05H330.621C331.325 238.05 331.919 238.292 332.403 238.776C332.931 239.26 333.195 239.832 333.195 240.492C333.195 241.24 332.931 241.856 332.403 242.34C331.919 242.78 331.325 243 330.621 243H299.667ZM347.344 243C346.596 243 345.98 242.758 345.496 242.274C345.012 241.79 344.77 241.174 344.77 240.426V194.028C344.77 193.28 345.012 192.664 345.496 192.18C345.98 191.696 346.596 191.454 347.344 191.454H378.298C379.002 191.454 379.596 191.696 380.08 192.18C380.608 192.62 380.872 193.214 380.872 193.962C380.872 194.622 380.608 195.194 380.08 195.678C379.596 196.162 379.002 196.404 378.298 196.404H349.918V214.62H370.576C371.324 214.62 371.94 214.862 372.424 215.346C372.908 215.83 373.15 216.424 373.15 217.128C373.15 217.832 372.908 218.426 372.424 218.91C371.94 219.394 371.324 219.636 370.576 219.636H349.918V238.05H378.298C379.002 238.05 379.596 238.292 380.08 238.776C380.608 239.26 380.872 239.832 380.872 240.492C380.872 241.24 380.608 241.856 380.08 242.34C379.596 242.78 379.002 243 378.298 243H347.344ZM416.337 243C415.633 243 415.017 242.758 414.489 242.274C414.005 241.746 413.763 241.13 413.763 240.426V194.028C413.763 193.28 414.005 192.664 414.489 192.18C415.017 191.696 415.633 191.454 416.337 191.454C417.393 191.454 418.163 191.894 418.647 192.774L440.889 236.994H438.645L460.491 192.774C461.019 191.894 461.789 191.454 462.801 191.454C463.505 191.454 464.099 191.696 464.583 192.18C465.067 192.664 465.309 193.28 465.309 194.028V240.426C465.309 241.13 465.067 241.746 464.583 242.274C464.099 242.758 463.505 243 462.801 243C462.053 243 461.415 242.758 460.887 242.274C460.403 241.746 460.161 241.13 460.161 240.426V200.694L461.283 200.76L441.813 240.558C441.329 241.394 440.581 241.812 439.569 241.812C438.469 241.812 437.677 241.284 437.193 240.228L417.591 201.024L418.911 200.694V240.426C418.911 241.13 418.647 241.746 418.119 242.274C417.635 242.758 417.041 243 416.337 243ZM477.681 243C476.669 243 475.943 242.582 475.503 241.746C475.063 240.91 475.019 240.096 475.371 239.304L494.775 193.236C495.259 192.048 496.095 191.454 497.283 191.454C498.427 191.454 499.241 192.048 499.725 193.236L519.195 239.37C519.591 240.206 519.525 241.02 518.997 241.812C518.513 242.604 517.809 243 516.885 243C516.357 243 515.873 242.868 515.433 242.604C515.037 242.34 514.707 241.944 514.443 241.416L496.293 197.394H498.339L480.057 241.416C479.837 241.944 479.507 242.34 479.067 242.604C478.671 242.868 478.209 243 477.681 243ZM482.037 230.724L484.017 226.302H510.813L512.793 230.724H482.037ZM531.479 243C530.731 243 530.115 242.758 529.631 242.274C529.147 241.79 528.905 241.174 528.905 240.426V194.028C528.905 193.28 529.147 192.664 529.631 192.18C530.115 191.696 530.731 191.454 531.479 191.454H544.679C547.935 191.454 550.817 192.18 553.325 193.632C555.833 195.04 557.791 196.998 559.199 199.506C560.607 202.014 561.311 204.918 561.311 208.218C561.311 211.43 560.607 214.29 559.199 216.798C557.791 219.262 555.833 221.22 553.325 222.672C550.817 224.08 547.935 224.784 544.679 224.784H534.053V240.426C534.053 241.174 533.811 241.79 533.327 242.274C532.843 242.758 532.227 243 531.479 243ZM534.053 219.834H544.679C546.923 219.834 548.925 219.35 550.685 218.382C552.445 217.37 553.809 215.984 554.777 214.224C555.789 212.464 556.295 210.462 556.295 208.218C556.295 205.886 555.789 203.84 554.777 202.08C553.809 200.32 552.445 198.934 550.685 197.922C548.925 196.91 546.923 196.404 544.679 196.404H534.053V219.834Z" fill="#E3DBDB"/>
<path d="M264.024 118C255.859 118 248.186 116.451 241.005 113.354C233.824 110.256 227.577 106.052 222.265 100.742C216.952 95.4325 212.747 89.1883 209.648 82.01C206.549 74.8317 205 67.1617 205 59C205 50.8383 206.549 43.1683 209.648 35.99C212.747 28.8117 216.952 22.5675 222.265 17.2575C227.577 11.9475 233.824 7.74375 241.005 4.64625C248.186 1.54875 255.859 0 264.024 0C278.387 0 290.954 4.49875 301.726 13.4962C312.498 22.4937 319.212 33.7775 321.868 47.3475H309.768C307.899 40.1692 304.53 33.7529 299.66 28.0987C294.791 22.4446 288.815 18.1917 281.732 15.34V17.7C281.732 20.945 280.576 23.7229 278.264 26.0337C275.952 28.3446 273.173 29.5 269.927 29.5H258.122V41.3C258.122 42.9717 257.556 44.3729 256.425 45.5037C255.294 46.6346 253.892 47.2 252.22 47.2H240.415V59H252.22V76.7H246.317L217.985 48.38C217.69 50.15 217.42 51.92 217.174 53.69C216.928 55.46 216.805 57.23 216.805 59C216.805 71.8817 221.33 82.9442 230.38 92.1875C239.431 101.431 250.646 106.102 264.024 106.2V118ZM317.737 115.05L298.849 96.17C296.783 97.35 294.57 98.3333 292.209 99.12C289.848 99.9067 287.339 100.3 284.683 100.3C277.305 100.3 271.034 97.7187 265.869 92.5562C260.704 87.3937 258.122 81.125 258.122 73.75C258.122 66.375 260.704 60.1062 265.869 54.9437C271.034 49.7812 277.305 47.2 284.683 47.2C292.061 47.2 298.332 49.7812 303.497 54.9437C308.662 60.1062 311.244 66.375 311.244 73.75C311.244 76.405 310.85 78.9125 310.063 81.2725C309.276 83.6325 308.293 85.845 307.112 87.91L326 106.79L317.737 115.05ZM284.683 88.5C288.815 88.5 292.307 87.0742 295.16 84.2225C298.013 81.3708 299.439 77.88 299.439 73.75C299.439 69.62 298.013 66.1292 295.16 63.2775C292.307 60.4258 288.815 59 284.683 59C280.551 59 277.059 60.4258 274.206 63.2775C271.353 66.1292 269.927 69.62 269.927 73.75C269.927 77.88 271.353 81.3708 274.206 84.2225C277.059 87.0742 280.551 88.5 284.683 88.5Z" fill="#E3DBDB" fill-opacity="0.75"/>
</svg>
