<svg width="532" height="532" viewBox="0 0 532 532" fill="none" xmlns="http://www.w3.org/2000/svg">
<path d="M133.001 310.333C120.81 310.333 110.373 305.992 101.691 297.31C93.0089 288.629 88.668 278.192 88.668 266C88.668 253.808 93.0089 243.372 101.691 234.69C110.373 226.008 120.81 221.667 133.001 221.667C145.193 221.667 155.63 226.008 164.312 234.69C172.994 243.372 177.335 253.808 177.335 266C177.335 278.192 172.994 288.629 164.312 297.31C155.63 305.992 145.193 310.333 133.001 310.333ZM266.001 310.333C253.81 310.333 243.373 305.992 234.691 297.31C226.009 288.629 221.668 278.192 221.668 266C221.668 253.808 226.009 243.372 234.691 234.69C243.373 226.008 253.81 221.667 266.001 221.667C278.193 221.667 288.63 226.008 297.312 234.69C305.994 243.372 310.335 253.808 310.335 266C310.335 278.192 305.994 288.629 297.312 297.31C288.63 305.992 278.193 310.333 266.001 310.333ZM399.001 310.333C386.81 310.333 376.373 305.992 367.691 297.31C359.009 288.629 354.668 278.192 354.668 266C354.668 253.808 359.009 243.372 367.691 234.69C376.373 226.008 386.81 221.667 399.001 221.667C411.193 221.667 421.63 226.008 430.312 234.69C438.994 243.372 443.335 253.808 443.335 266C443.335 278.192 438.994 288.629 430.312 297.31C421.63 305.992 411.193 310.333 399.001 310.333Z" fill="white"/>
</svg>
