<svg width="164" height="119" viewBox="0 0 164 119" fill="none" xmlns="http://www.w3.org/2000/svg">
<path d="M53.6114 107.127C50.2194 109.343 45.3582 113.45 41.0546 110.665C33.9242 106.051 29.558 96.5033 26.9023 88.812C22.8981 77.2154 20.6945 53.2034 38.8694 54.7838C54.5638 56.1486 61.8483 75.9824 62.3179 89.367C62.4563 93.3128 63.4179 99.8319 60.8264 103.242C58.712 106.024 55.493 109.932 52.3627 111.497" stroke="#8CDD5F" stroke-width="13" stroke-linecap="round"/>
<path d="M54.2334 97.137C49.2978 95.5402 45.4922 88.6605 45.4922 83.5396C45.4922 80.9218 56.5307 82.1521 58.6039 82.1521" stroke="#8CDD5F" stroke-width="13" stroke-linecap="round"/>
<path d="M52.9882 85.8982C51.7372 87.5402 50.1803 95.2637 53.6126 95.2637" stroke="#8CDD5F" stroke-width="13" stroke-linecap="round"/>
<path d="M129.158 101.507C124.085 100.541 118.853 91.8088 116.116 88.014C111.436 81.526 107.93 72.8275 107.93 64.7389C107.93 49.0919 130.69 52.0128 139.564 57.1771C146.335 61.1176 146.966 68.2623 147.577 75.3532C148.071 81.0872 148.389 87.0377 146.502 92.5581C144.462 98.5276 137.54 99.6343 131.656 99.6343" stroke="#8CDD5F" stroke-width="13" stroke-linecap="round"/>
<path d="M144.144 84.0252C137.443 84.0252 139.149 74.9276 139.149 70.2891C139.149 67.9875 138.041 72.0099 137.588 72.8212C136.135 75.4205 134.375 78.4568 134.917 81.5277C135.327 83.8517 137.84 86.1805 139.773 87.147" stroke="#8CDD5F" stroke-width="13" stroke-linecap="round"/>
<path d="M99.1914 9.72518C99.1914 6.85314 101.007 7.2277 103.354 7.2277C111.758 7.2277 117.79 7.44546 124.097 13.4367C128.146 17.2832 131.069 24.6753 136.064 27.1728C142.759 30.5203 149.962 29.705 157.258 29.705" stroke="#8CDD5F" stroke-width="13" stroke-linecap="round"/>
<path d="M6.78125 40.3192C15.4888 35.9654 24.5559 32.1658 34.2535 30.9536" stroke="#8CDD5F" stroke-width="13" stroke-linecap="round"/>
</svg>
