<svg width="170" height="128" viewBox="0 0 170 128" fill="none" xmlns="http://www.w3.org/2000/svg">
<path d="M62.5829 82.6606C55.1307 92.6172 47.7395 104.011 35.6303 108.721C30.1154 110.865 27.3021 109.899 25.6389 104.154C20.3169 85.769 21.8707 57.0178 42.6689 48.3261C46.1471 46.8725 54.43 44.3813 57.9478 46.987C63.2798 50.9367 62.5464 63.1339 62.5829 68.7895C62.6336 76.6522 61.8154 88.9405 54.5486 93.785" stroke="#8CDD5F" stroke-width="13" stroke-linecap="round"/>
<path d="M32.3025 61.0298C34.1853 65.7368 33.5385 73.2833 33.5385 78.1971C33.5385 81.2409 33.2647 82.9344 31.0664 85.1326" stroke="#8CDD5F" stroke-width="13" stroke-linecap="round"/>
<path d="M100.903 117.888C100.903 113.769 100.841 109.646 100.903 105.527C100.977 100.559 102.967 95.691 104.027 90.8665C105.308 85.0359 107.244 74.1134 114.636 72.6349C126.885 70.185 137.904 74.2695 140.765 86.9867C142.067 92.7746 142.718 96.8722 140.731 102.437C138.587 108.441 133.55 113.386 128.164 116.617C123.891 119.181 120.306 120.36 115.392 120.36C112.335 120.36 107.997 121.126 105.229 119.742" stroke="#8CDD5F" stroke-width="13" stroke-linecap="round"/>
<path d="M110.172 85.7507C113.778 88.2178 115.157 93.1323 114.361 97.2871C113.32 102.726 108.668 104.893 103.992 106.763" stroke="#8CDD5F" stroke-width="13" stroke-linecap="round"/>
<path d="M6.90234 29.9748C22.8176 15.8279 59.2339 -8.52874 73.605 20.2134" stroke="#8CDD5F" stroke-width="13" stroke-linecap="round"/>
<path d="M137.055 56.0051C145.119 60.0375 160.07 68.1087 163.085 77.1547" stroke="#8CDD5F" stroke-width="13" stroke-linecap="round"/>
</svg>
