<svg width="30" height="98" viewBox="0 0 30 98" fill="none" xmlns="http://www.w3.org/2000/svg">
<path d="M24.875 98C23.5417 98 22.375 97.5417 21.375 96.625C20.4583 95.7083 20 94.5417 20 93.125V11.875L7.5 16.25C6.58333 16.6667 5.75 16.875 5 16.875C3.58333 16.875 2.41667 16.4167 1.5 15.5C0.583333 14.5833 0.125 13.4583 0.125 12.125C0.125 11.125 0.333334 10.2083 0.75 9.37499C1.25 8.54166 2.08333 7.91666 3.25 7.5L22.5 0.874999C22.9167 0.708329 23.3333 0.583328 23.75 0.499996C24.25 0.333327 24.6667 0.249992 25 0.249992C26.4167 0.249992 27.5417 0.749993 28.375 1.74999C29.2917 2.66666 29.75 3.79166 29.75 5.125V93.125C29.75 94.5417 29.2917 95.7083 28.375 96.625C27.4583 97.5417 26.2917 98 24.875 98Z" fill="#3ABC8F"/>
</svg>
