<svg width="75" height="98" viewBox="0 0 75 98" fill="none" xmlns="http://www.w3.org/2000/svg">
<path d="M55 98C53.75 98 52.6667 97.5417 51.75 96.625C50.8333 95.7083 50.375 94.5417 50.375 93.125V74.625H5.625C4.29167 74.625 3.16667 74.2083 2.25 73.375C1.41667 72.4583 0.916667 71.4167 0.75 70.25C0.666667 69.0833 1 68 1.75 67L51.25 2.25C51.6667 1.66666 52.1667 1.20833 52.75 0.874999C53.4167 0.458328 54.25 0.249992 55.25 0.249992C56.5833 0.249992 57.6667 0.749993 58.5 1.74999C59.4167 2.66666 59.875 3.83333 59.875 5.24999V65.875H69.75C71.0833 65.875 72.2083 66.2083 73.125 66.875C74.0417 67.5417 74.5 68.7083 74.5 70.375C74.5 71.4583 74.0417 72.4583 73.125 73.375C72.2083 74.2083 71.0833 74.625 69.75 74.625H59.875V93.125C59.875 94.5417 59.4167 95.7083 58.5 96.625C57.5833 97.5417 56.4167 98 55 98ZM10.875 69.625L9.125 65.875H50.375V12.25L52.875 14.875L10.875 69.625Z" fill="#3ABC8F"/>
</svg>
