<svg width="127" height="104" viewBox="0 0 127 104" fill="none" xmlns="http://www.w3.org/2000/svg">
<path d="M127 52C127 80.7188 98.5701 104 63.5 104C28.4299 104 0 80.7188 0 52C0 23.2812 28.4299 0 63.5 0C98.5701 0 127 23.2812 127 52Z" fill="#00FF47" fill-opacity="0.12"/>
<path d="M89.8229 26H37.4197C32.7771 26 29 29.7771 29 34.4196V69.8682C29 74.5108 32.7771 78.2878 37.4197 78.2878H89.8229C94.4656 78.2878 98.2426 74.5108 98.2426 69.8682V34.4196C98.2426 29.7771 94.4656 26 89.8229 26ZM85.7887 28.8261L63.6022 46.7599L41.4158 28.8261H85.7887ZM86.8995 75.4615H40.3049V42.4582L62.7157 60.5114C63.2332 60.9282 63.9713 60.9282 64.4887 60.5114L86.8994 42.4582V75.4615H86.8995ZM95.4164 69.868C95.4164 72.9523 92.9071 75.4614 89.8229 75.4614H89.7259V39.5053C89.7259 38.9612 89.4136 38.4656 88.9227 38.2307C88.4315 37.9956 87.8497 38.0636 87.4263 38.4048L63.6022 57.5964L39.7782 38.4048C39.3543 38.0636 38.7723 37.9956 38.2818 38.2307C37.7908 38.4656 37.4786 38.9612 37.4786 39.5053V75.4614H37.4196C34.3355 75.4615 31.8262 72.9523 31.8262 69.8682V34.4196C31.8262 31.4949 34.0831 29.0887 36.9465 28.8477L62.714 49.6762C62.973 49.8857 63.2877 49.9904 63.6022 49.9904C63.9169 49.9904 64.2315 49.8857 64.4905 49.6762L90.2612 28.8449C93.1411 29.0694 95.4164 31.483 95.4164 34.4195V69.868Z" fill="#00FF38"/>
</svg>
