<svg width="310" height="104" viewBox="0 0 310 104" fill="none" xmlns="http://www.w3.org/2000/svg">
<path d="M64 34.4167C60.9179 34.4167 57.905 35.3306 55.3424 37.0429C52.7797 38.7553 50.7823 41.189 49.6029 44.0365C48.4234 46.884 48.1148 50.0173 48.7161 53.0402C49.3174 56.063 50.8015 58.8397 52.9809 61.0191C55.1603 63.1984 57.937 64.6826 60.9598 65.2839C63.9827 65.8852 67.116 65.5766 69.9635 64.3971C72.811 63.2177 75.2447 61.2203 76.9571 58.6576C78.6694 56.095 79.5833 53.0821 79.5833 50C79.5787 45.8685 77.9354 41.9075 75.0139 38.9861C72.0925 36.0646 68.1315 34.4213 64 34.4167ZM64 62.75C61.4783 62.75 59.0132 62.0022 56.9165 60.6012C54.8198 59.2002 53.1856 57.209 52.2205 54.8792C51.2555 52.5495 51.003 49.9859 51.495 47.5126C51.9869 45.0393 53.2013 42.7675 54.9844 40.9844C56.7675 39.2013 59.0393 37.9869 61.5126 37.495C63.9859 37.003 66.5495 37.2555 68.8792 38.2205C71.209 39.1856 73.2002 40.8198 74.6012 42.9165C76.0022 45.0132 76.75 47.4783 76.75 50C76.7462 53.3803 75.4017 56.6211 73.0114 59.0114C70.6211 61.4017 67.3803 62.7462 64 62.75ZM79.5833 16H48.4167C43.534 16.0055 38.8528 17.9476 35.4002 21.4002C31.9476 24.8528 30.0055 29.534 30 34.4167V65.5833C30.0055 70.466 31.9476 75.1472 35.4002 78.5998C38.8528 82.0524 43.534 83.9945 48.4167 84H79.5833C84.466 83.9945 89.1472 82.0524 92.5998 78.5998C96.0524 75.1472 97.9945 70.466 98 65.5833V34.4167C97.9945 29.534 96.0524 24.8528 92.5998 21.4002C89.1472 17.9476 84.466 16.0055 79.5833 16ZM95.1667 65.5833C95.162 69.7149 93.5187 73.6758 90.5973 76.5973C87.6758 79.5187 83.7149 81.162 79.5833 81.1667H48.4167C44.2851 81.162 40.3242 79.5187 37.4027 76.5973C34.4813 73.6758 32.838 69.7149 32.8333 65.5833V34.4167C32.838 30.2851 34.4813 26.3242 37.4027 23.4027C40.3242 20.4813 44.2851 18.838 48.4167 18.8333H79.5833C83.7149 18.838 87.6758 20.4813 90.5973 23.4027C93.5187 26.3242 95.162 30.2851 95.1667 34.4167V65.5833ZM85.25 31.5833C85.25 32.1437 85.0838 32.6915 84.7725 33.1574C84.4612 33.6234 84.0187 33.9865 83.5009 34.201C82.9832 34.4154 82.4135 34.4715 81.8639 34.3622C81.3143 34.2529 80.8094 33.9831 80.4132 33.5868C80.0169 33.1906 79.7471 32.6857 79.6378 32.1361C79.5284 31.5865 79.5846 31.0168 79.799 30.4991C80.0135 29.9813 80.3766 29.5388 80.8425 29.2275C81.3085 28.9162 81.8563 28.75 82.4167 28.75C83.1678 28.7509 83.888 29.0496 84.4192 29.5808C84.9504 30.112 85.2491 30.8322 85.25 31.5833Z" fill="#02F937"/>
<path d="M310 52C310 80.7188 281.57 104 246.5 104C211.43 104 183 80.7188 183 52C183 23.2812 211.43 0 246.5 0C281.57 0 310 23.2812 310 52Z" fill="#00FF47" fill-opacity="0.12"/>
<path d="M127 52C127 80.7188 98.5701 104 63.5 104C28.4299 104 0 80.7188 0 52C0 23.2812 28.4299 0 63.5 0C98.5701 0 127 23.2812 127 52Z" fill="#00FF47" fill-opacity="0.12"/>
<path d="M231.639 49.2813H238.528V77.6451C238.528 78.2051 238.982 78.6589 239.542 78.6589H251.224C251.784 78.6589 252.238 78.2051 252.238 77.6451V49.4149H260.158C260.673 49.4149 261.106 49.0285 261.165 48.5169L262.368 38.0748C262.401 37.7875 262.31 37.4998 262.118 37.2842C261.925 37.0685 261.65 36.945 261.361 36.945H252.238V30.3994C252.238 28.4262 253.301 27.4256 255.396 27.4256C255.695 27.4256 261.361 27.4256 261.361 27.4256C261.921 27.4256 262.375 26.9716 262.375 26.4118V16.8269C262.375 16.2669 261.921 15.8132 261.361 15.8132H253.141C253.083 15.8103 252.954 15.8057 252.764 15.8057C251.338 15.8057 246.38 16.0857 242.464 19.6886C238.124 23.6812 238.727 28.4617 238.872 29.2905V36.9448H231.639C231.079 36.9448 230.625 37.3986 230.625 37.9586V48.2673C230.625 48.8273 231.079 49.2813 231.639 49.2813Z" fill="#02F937"/>
</svg>
