<svg width="638" height="618" viewBox="0 0 638 618" fill="none" xmlns="http://www.w3.org/2000/svg">
<path d="M634 308.959C634 477.263 493.091 613.918 319 613.918C144.909 613.918 4 477.263 4 308.959C4 140.654 144.909 4 319 4C493.091 4 634 140.654 634 308.959Z" stroke="#00FF47" stroke-width="8"/>
<path d="M582.88 309.949C582.88 450.362 465.317 564.405 320.024 564.405C174.731 564.405 57.168 450.362 57.168 309.949C57.168 169.537 174.731 55.4932 320.024 55.4932C465.317 55.4932 582.88 169.537 582.88 309.949Z" stroke="#00FF47" stroke-width="8"/>
<rect x="284.238" y="522.854" width="67.4808" height="69.3177" fill="#14B614"/>
<line x1="352.5" y1="558" x2="352.5" y2="607.513" stroke="#00FF38" stroke-width="7"/>
<line y1="-3.5" x2="51.4909" y2="-3.5" transform="matrix(-0.00899377 0.99996 -0.999964 -0.00843653 278.465 558)" stroke="#00FF38" stroke-width="7"/>
<line x1="322.633" y1="617.918" x2="322.633" y2="275.291" stroke="#00FF38" stroke-width="5"/>
<path d="M399.205 144.623C399.232 143.242 398.134 142.103 396.754 142.078C395.373 142.053 394.232 143.151 394.205 144.532L399.205 144.623ZM397.16 249.59L399.205 144.623L394.205 144.532L392.161 249.498L397.16 249.59Z" fill="#00FF38"/>
<path d="M249.927 146.602C249.954 145.222 248.857 144.082 247.476 144.057C246.096 144.032 244.955 145.131 244.928 146.511L249.927 146.602ZM247.882 251.569L249.927 146.602L244.928 146.511L242.883 251.478L247.882 251.569Z" fill="#00FF38"/>
<path d="M357.852 209.934L357.852 112.889" stroke="#00FF38" stroke-width="5" stroke-linecap="round"/>
<path d="M319.441 176.272L320.6 85.1546" stroke="#00FF38" stroke-width="5" stroke-linecap="round"/>
<path d="M357.852 209.934L357.852 112.889" stroke="#00FF38" stroke-width="5" stroke-linecap="round"/>
<path d="M276.059 213.895L276.059 112.889" stroke="#00FF38" stroke-width="5" stroke-linecap="round"/>
<rect x="2.15478" y="-0.0275846" width="109.167" height="109.258" transform="matrix(0.709354 -0.704853 0.727165 0.686463 239.896 448.946)" stroke="#00FF38" stroke-width="3"/>
<rect x="2.15478" y="-0.0275846" width="109.167" height="109.258" transform="matrix(0.709354 -0.704853 0.727165 0.686463 239.896 355.862)" stroke="#00FF38" stroke-width="3"/>
<rect x="2.15478" y="-0.0275846" width="109.167" height="109.258" transform="matrix(0.709354 -0.704853 0.727165 0.686463 239.896 252.874)" stroke="#00FF38" stroke-width="3"/>
<rect x="292" y="368" width="27" height="28" fill="#15BA15"/>
<rect width="10.067" height="6.03746" transform="matrix(0.723281 0.690554 -0.713324 0.700835 294.68 390.159)" fill="#15BA15"/>
<rect width="25.5288" height="7.42111" transform="matrix(0.723281 0.690554 -0.713324 0.700835 330.438 377.417)" fill="#15BA15"/>
<rect width="11.3129" height="7.52245" transform="matrix(-0.00632114 0.99998 -0.999982 -0.00592948 332.715 374.36)" fill="#15BA15"/>
<rect width="44.5995" height="34.2898" transform="matrix(0.724791 0.688968 -0.711785 0.702397 312.734 265.388)" fill="#15BA15"/>
<rect x="319" y="273.31" width="10.2244" height="5.94152" fill="#15BA15"/>
</svg>
