<svg width="101" height="148" viewBox="0 0 101 148" fill="none" xmlns="http://www.w3.org/2000/svg">
<path d="M40.1923 7C41.1153 15.7897 43.9711 24.965 42.5534 33.8466C40.2825 48.0729 31.5301 63.2416 24.5503 75.6327C19.7217 84.2049 14.0236 90.6219 7.21132 97.4502C5.27535 99.3908 17.2339 95.9011 18.9428 95.6013C27.2432 94.1453 37.1642 94.19 45.3571 96.193C53.8049 98.2583 55.6583 110.102 57.3099 117.197C58.7845 123.531 60.0844 129.836 61.7369 136.13C62.2271 137.997 63.8867 144.299 64.098 138.793C64.455 129.489 67.2053 120.504 68.7463 111.354C70.6622 99.9793 71.8428 86.848 77.3789 76.5202C79.5736 72.4259 81.9804 69.5682 86.7493 69.5682C91.2009 69.5682 104.556 69.5682 100.104 69.5682C83.3355 69.5682 74.0645 67.4945 66.1639 52.41C61.0344 42.6164 58.7856 33.8638 58.7856 22.9749" stroke="#8CDD5F" stroke-width="13" stroke-linecap="round"/>
</svg>
