<svg width="59" height="98" viewBox="0 0 59 98" fill="none" xmlns="http://www.w3.org/2000/svg">
<path d="M5.75 98C4.41667 98 3.25 97.5417 2.25 96.625C1.33333 95.7083 0.875 94.5417 0.875 93.125C0.875 91.875 1.33333 90.75 2.25 89.75L40.125 45C42.2083 42.75 43.875 40.25 45.125 37.5C46.375 34.6667 47 32.0417 47 29.625C47 25.7083 46.2083 22.25 44.625 19.25C43.125 16.25 40.9583 13.9167 38.125 12.25C35.375 10.5 32.2083 9.625 28.625 9.625C25.125 9.625 21.9167 10.5417 19 12.375C16.1667 14.125 13.9167 16.5 12.25 19.5C10.6667 22.5 9.875 25.875 9.875 29.625C9.875 30.9583 9.41667 32.0833 8.5 33C7.58333 33.9167 6.41667 34.375 5 34.375C3.66667 34.375 2.5 33.9167 1.5 33C0.583334 32.0833 0.125001 30.9583 0.125001 29.625C0.125001 24.0417 1.375 19.0417 3.875 14.625C6.375 10.2083 9.75 6.70833 14 4.12499C18.3333 1.54166 23.2083 0.249992 28.625 0.249992C34.0417 0.249992 38.8333 1.49999 43 4C47.25 6.49999 50.5417 9.95833 52.875 14.375C55.2917 18.7917 56.5 23.875 56.5 29.625C56.5 32.375 56.0417 35 55.125 37.5C54.2917 40 53.125 42.4167 51.625 44.75C50.125 47 48.5 49.125 46.75 51.125L14.75 88.25H53.875C55.2083 88.25 56.3333 88.75 57.25 89.75C58.25 90.75 58.75 91.875 58.75 93.125C58.75 94.5417 58.25 95.7083 57.25 96.625C56.3333 97.5417 55.2083 98 53.875 98H5.75Z" fill="#3ABC8F"/>
</svg>
