<svg width="149" height="216" viewBox="0 0 149 216" fill="none" xmlns="http://www.w3.org/2000/svg">
<path d="M57.1416 7C58.5359 20.2502 62.8499 34.0816 60.7083 47.4703C57.2778 68.9159 44.0562 91.7821 33.5122 110.461C26.2178 123.384 17.6101 133.057 7.31923 143.35C4.39467 146.276 22.4598 141.015 25.0413 140.563C37.5801 138.368 52.5671 138.436 64.9437 141.455C77.7053 144.568 80.505 162.422 83.0001 173.118C85.2276 182.667 87.1914 192.17 89.6877 201.659C90.4282 204.473 92.9352 213.973 93.2544 205.672C93.7937 191.647 97.9484 178.102 100.276 164.31C103.171 147.163 104.954 127.368 113.317 111.799C116.633 105.627 120.268 101.319 127.472 101.319C134.197 101.319 154.371 101.319 147.647 101.319C122.315 101.319 108.31 98.1932 96.3752 75.4539C88.6264 60.6904 85.2293 47.4962 85.2293 31.0815" stroke="#8CDD5F" stroke-width="13" stroke-linecap="round"/>
</svg>
