<svg width="1643" height="1485" viewBox="0 0 1643 1485" fill="none" xmlns="http://www.w3.org/2000/svg">
<g filter="url(#filter0_d_316_161)">
<rect x="21" y="9" width="1566.99" height="1409.49" rx="103" fill="url(#paint0_linear_316_161)"/>
</g>
<path d="M57.0781 224.546C56.4781 224.546 55.9615 224.346 55.5281 223.946C55.1281 223.546 54.9281 223.029 54.9281 222.396V190.546L50.3781 192.196C49.9448 192.396 49.5448 192.496 49.1781 192.496C48.5448 192.496 48.0281 192.296 47.6281 191.896C47.2281 191.496 47.0281 190.996 47.0281 190.396C47.0281 189.963 47.1281 189.563 47.3281 189.196C47.5615 188.829 47.9281 188.563 48.4281 188.396L56.1281 185.696C56.2948 185.629 56.4615 185.579 56.6281 185.546C56.8281 185.479 56.9948 185.446 57.1281 185.446C57.7615 185.446 58.2615 185.663 58.6281 186.096C59.0281 186.496 59.2281 186.996 59.2281 187.596V222.396C59.2281 223.029 59.0115 223.546 58.5781 223.946C58.1781 224.346 57.6781 224.546 57.0781 224.546ZM79.2188 224.546C76.9521 224.546 74.9354 224.046 73.1688 223.046C71.4021 222.013 70.0021 220.613 68.9688 218.846C67.9688 217.079 67.4688 215.046 67.4688 212.746C67.4688 210.479 67.9688 208.463 68.9688 206.696C70.0021 204.896 71.4021 203.496 73.1688 202.496C74.9354 201.463 76.9521 200.946 79.2188 200.946C81.4854 200.946 83.5021 201.463 85.2688 202.496C87.0354 203.496 88.4188 204.896 89.4188 206.696C90.4521 208.463 90.9688 210.479 90.9688 212.746C90.9688 215.046 90.4521 217.079 89.4188 218.846C88.4188 220.613 87.0354 222.013 85.2688 223.046C83.5021 224.046 81.4854 224.546 79.2188 224.546ZM79.1688 220.646C80.6688 220.646 82.0021 220.313 83.1688 219.646C84.3354 218.979 85.2521 218.046 85.9188 216.846C86.5854 215.646 86.9188 214.279 86.9188 212.746C86.9188 211.213 86.5854 209.863 85.9188 208.696C85.2521 207.496 84.3354 206.546 83.1688 205.846C82.0021 205.146 80.6688 204.796 79.1688 204.796C77.7021 204.796 76.3854 205.146 75.2188 205.846C74.0854 206.546 73.1854 207.496 72.5188 208.696C71.8521 209.863 71.5188 211.213 71.5188 212.746C71.5188 214.279 71.8521 215.646 72.5188 216.846C73.1854 218.046 74.0854 218.979 75.2188 219.646C76.3854 220.313 77.7021 220.646 79.1688 220.646ZM68.9688 206.696L81.1188 186.646C81.5854 185.879 82.2188 185.496 83.0188 185.496C83.5854 185.496 84.0688 185.663 84.4688 185.996C84.8688 186.329 85.1021 186.763 85.1688 187.296C85.2688 187.796 85.1688 188.279 84.8688 188.746L76.9688 201.696L68.9688 206.696ZM107.523 224.546C105.056 224.546 102.923 223.763 101.123 222.196C99.356 220.629 98.006 218.396 97.0727 215.496C96.1727 212.563 95.7227 209.046 95.7227 204.946C95.7227 200.913 96.1727 197.429 97.0727 194.496C98.006 191.563 99.356 189.313 101.123 187.746C102.923 186.179 105.056 185.396 107.523 185.396C110.056 185.396 112.206 186.196 113.973 187.796C115.739 189.363 117.073 191.613 117.973 194.546C118.906 197.479 119.373 200.946 119.373 204.946C119.373 209.013 118.906 212.513 117.973 215.446C117.073 218.346 115.739 220.596 113.973 222.196C112.206 223.763 110.056 224.546 107.523 224.546ZM107.523 220.246C109.256 220.246 110.673 219.596 111.773 218.296C112.906 216.963 113.739 215.146 114.273 212.846C114.806 210.546 115.073 207.913 115.073 204.946C115.073 202.046 114.789 199.446 114.223 197.146C113.689 194.846 112.856 193.029 111.723 191.696C110.623 190.363 109.223 189.696 107.523 189.696C105.823 189.696 104.423 190.363 103.323 191.696C102.223 192.996 101.389 194.796 100.823 197.096C100.289 199.396 100.023 202.013 100.023 204.946C100.023 207.946 100.289 210.596 100.823 212.896C101.389 215.163 102.223 216.963 103.323 218.296C104.456 219.596 105.856 220.246 107.523 220.246ZM150.833 224.546C148.367 224.546 146.233 223.763 144.433 222.196C142.667 220.629 141.317 218.396 140.383 215.496C139.483 212.563 139.033 209.046 139.033 204.946C139.033 200.913 139.483 197.429 140.383 194.496C141.317 191.563 142.667 189.313 144.433 187.746C146.233 186.179 148.367 185.396 150.833 185.396C153.367 185.396 155.517 186.196 157.283 187.796C159.05 189.363 160.383 191.613 161.283 194.546C162.217 197.479 162.683 200.946 162.683 204.946C162.683 209.013 162.217 212.513 161.283 215.446C160.383 218.346 159.05 220.596 157.283 222.196C155.517 223.763 153.367 224.546 150.833 224.546ZM150.833 220.246C152.567 220.246 153.983 219.596 155.083 218.296C156.217 216.963 157.05 215.146 157.583 212.846C158.117 210.546 158.383 207.913 158.383 204.946C158.383 202.046 158.1 199.446 157.533 197.146C157 194.846 156.167 193.029 155.033 191.696C153.933 190.363 152.533 189.696 150.833 189.696C149.133 189.696 147.733 190.363 146.633 191.696C145.533 192.996 144.7 194.796 144.133 197.096C143.6 199.396 143.333 202.013 143.333 204.946C143.333 207.946 143.6 210.596 144.133 212.896C144.7 215.163 145.533 216.963 146.633 218.296C147.767 219.596 149.167 220.246 150.833 220.246ZM179.495 224.546C177.029 224.546 174.895 223.763 173.095 222.196C171.329 220.629 169.979 218.396 169.045 215.496C168.145 212.563 167.695 209.046 167.695 204.946C167.695 200.913 168.145 197.429 169.045 194.496C169.979 191.563 171.329 189.313 173.095 187.746C174.895 186.179 177.029 185.396 179.495 185.396C182.029 185.396 184.179 186.196 185.945 187.796C187.712 189.363 189.045 191.613 189.945 194.546C190.879 197.479 191.345 200.946 191.345 204.946C191.345 209.013 190.879 212.513 189.945 215.446C189.045 218.346 187.712 220.596 185.945 222.196C184.179 223.763 182.029 224.546 179.495 224.546ZM179.495 220.246C181.229 220.246 182.645 219.596 183.745 218.296C184.879 216.963 185.712 215.146 186.245 212.846C186.779 210.546 187.045 207.913 187.045 204.946C187.045 202.046 186.762 199.446 186.195 197.146C185.662 194.846 184.829 193.029 183.695 191.696C182.595 190.363 181.195 189.696 179.495 189.696C177.795 189.696 176.395 190.363 175.295 191.696C174.195 192.996 173.362 194.796 172.795 197.096C172.262 199.396 171.995 202.013 171.995 204.946C171.995 207.946 172.262 210.596 172.795 212.896C173.362 215.163 174.195 216.963 175.295 218.296C176.429 219.596 177.829 220.246 179.495 220.246ZM208.157 224.546C205.691 224.546 203.557 223.763 201.757 222.196C199.991 220.629 198.641 218.396 197.707 215.496C196.807 212.563 196.357 209.046 196.357 204.946C196.357 200.913 196.807 197.429 197.707 194.496C198.641 191.563 199.991 189.313 201.757 187.746C203.557 186.179 205.691 185.396 208.157 185.396C210.691 185.396 212.841 186.196 214.607 187.796C216.374 189.363 217.707 191.613 218.607 194.546C219.541 197.479 220.007 200.946 220.007 204.946C220.007 209.013 219.541 212.513 218.607 215.446C217.707 218.346 216.374 220.596 214.607 222.196C212.841 223.763 210.691 224.546 208.157 224.546ZM208.157 220.246C209.891 220.246 211.307 219.596 212.407 218.296C213.541 216.963 214.374 215.146 214.907 212.846C215.441 210.546 215.707 207.913 215.707 204.946C215.707 202.046 215.424 199.446 214.857 197.146C214.324 194.846 213.491 193.029 212.357 191.696C211.257 190.363 209.857 189.696 208.157 189.696C206.457 189.696 205.057 190.363 203.957 191.696C202.857 192.996 202.024 194.796 201.457 197.096C200.924 199.396 200.657 202.013 200.657 204.946C200.657 207.946 200.924 210.596 201.457 212.896C202.024 215.163 202.857 216.963 203.957 218.296C205.091 219.596 206.491 220.246 208.157 220.246Z" fill="#D4F173"/>
<path d="M69.6896 905.691C66.8282 905.691 64.3536 904.783 62.2656 902.965C60.2162 901.148 58.6502 898.557 57.5676 895.193C56.5236 891.791 56.0016 887.711 56.0016 882.955C56.0016 878.277 56.5236 874.236 57.5676 870.833C58.6502 867.431 60.2162 864.821 62.2656 863.003C64.3536 861.186 66.8282 860.277 69.6896 860.277C72.6282 860.277 75.1222 861.205 77.1716 863.061C79.2209 864.879 80.7676 867.489 81.8116 870.891C82.8942 874.294 83.4356 878.315 83.4356 882.955C83.4356 887.673 82.8942 891.733 81.8116 895.135C80.7676 898.499 79.2209 901.109 77.1716 902.965C75.1222 904.783 72.6282 905.691 69.6896 905.691ZM69.6896 900.703C71.7002 900.703 73.3436 899.949 74.6196 898.441C75.9342 896.895 76.9009 894.787 77.5196 892.119C78.1382 889.451 78.4476 886.397 78.4476 882.955C78.4476 879.591 78.1189 876.575 77.4616 873.907C76.8429 871.239 75.8762 869.132 74.5616 867.585C73.2856 866.039 71.6616 865.265 69.6896 865.265C67.7176 865.265 66.0936 866.039 64.8176 867.585C63.5416 869.093 62.5749 871.181 61.9176 873.849C61.2989 876.517 60.9896 879.553 60.9896 882.955C60.9896 886.435 61.2989 889.509 61.9176 892.177C62.5749 894.807 63.5416 896.895 64.8176 898.441C66.1322 899.949 67.7562 900.703 69.6896 900.703Z" fill="#D4F173"/>
<path d="M270.269 1007.01C269.573 1007.01 268.974 1006.78 268.471 1006.32C268.007 1005.85 267.775 1005.25 267.775 1004.52C267.775 1003.86 268.007 1003.3 268.471 1002.84L285.697 982.538C286.741 981.378 287.553 980.179 288.133 978.942C288.752 977.666 289.061 976.467 289.061 975.346C289.061 973.567 288.713 972.001 288.017 970.648C287.36 969.294 286.413 968.25 285.175 967.516C283.938 966.742 282.507 966.356 280.883 966.356C279.337 966.356 277.906 966.762 276.591 967.574C275.315 968.386 274.31 969.468 273.575 970.822C272.841 972.175 272.473 973.683 272.473 975.346C272.473 976.003 272.241 976.583 271.777 977.086C271.313 977.55 270.733 977.782 270.037 977.782C269.341 977.782 268.742 977.55 268.239 977.086C267.775 976.583 267.543 976.003 267.543 975.346C267.543 972.755 268.123 970.435 269.283 968.386C270.482 966.298 272.087 964.654 274.097 963.456C276.108 962.257 278.37 961.658 280.883 961.658C283.435 961.658 285.678 962.238 287.611 963.398C289.583 964.558 291.111 966.162 292.193 968.212C293.276 970.261 293.817 972.639 293.817 975.346C293.817 976.622 293.605 977.859 293.179 979.058C292.754 980.218 292.174 981.358 291.439 982.48C290.705 983.562 289.931 984.568 289.119 985.496L274.735 1002.08H292.309C293.005 1002.08 293.585 1002.34 294.049 1002.84C294.552 1003.34 294.803 1003.9 294.803 1004.52C294.803 1005.25 294.552 1005.85 294.049 1006.32C293.585 1006.78 293.005 1007.01 292.309 1007.01H270.269ZM314.176 1007.01C311.315 1007.01 308.84 1006.11 306.752 1004.29C304.703 1002.47 303.137 999.88 302.054 996.516C301.01 993.113 300.488 989.034 300.488 984.278C300.488 979.599 301.01 975.558 302.054 972.156C303.137 968.753 304.703 966.143 306.752 964.326C308.84 962.508 311.315 961.6 314.176 961.6C317.115 961.6 319.609 962.528 321.658 964.384C323.707 966.201 325.254 968.811 326.298 972.214C327.381 975.616 327.922 979.638 327.922 984.278C327.922 988.995 327.381 993.055 326.298 996.458C325.254 999.822 323.707 1002.43 321.658 1004.29C319.609 1006.11 317.115 1007.01 314.176 1007.01ZM314.176 1002.03C316.187 1002.03 317.83 1001.27 319.106 999.764C320.421 998.217 321.387 996.11 322.006 993.442C322.625 990.774 322.934 987.719 322.934 984.278C322.934 980.914 322.605 977.898 321.948 975.23C321.329 972.562 320.363 970.454 319.048 968.908C317.772 967.361 316.148 966.588 314.176 966.588C312.204 966.588 310.58 967.361 309.304 968.908C308.028 970.416 307.061 972.504 306.404 975.172C305.785 977.84 305.476 980.875 305.476 984.278C305.476 987.758 305.785 990.832 306.404 993.5C307.061 996.129 308.028 998.217 309.304 999.764C310.619 1001.27 312.243 1002.03 314.176 1002.03ZM337.332 1007.01C336.636 1007.01 336.037 1006.78 335.534 1006.32C335.07 1005.85 334.838 1005.25 334.838 1004.52C334.838 1003.86 335.07 1003.3 335.534 1002.84L352.76 982.538C353.804 981.378 354.616 980.179 355.196 978.942C355.815 977.666 356.124 976.467 356.124 975.346C356.124 973.567 355.776 972.001 355.08 970.648C354.423 969.294 353.475 968.25 352.238 967.516C351.001 966.742 349.57 966.356 347.946 966.356C346.399 966.356 344.969 966.762 343.654 967.574C342.378 968.386 341.373 969.468 340.638 970.822C339.903 972.175 339.536 973.683 339.536 975.346C339.536 976.003 339.304 976.583 338.84 977.086C338.376 977.55 337.796 977.782 337.1 977.782C336.404 977.782 335.805 977.55 335.302 977.086C334.838 976.583 334.606 976.003 334.606 975.346C334.606 972.755 335.186 970.435 336.346 968.386C337.545 966.298 339.149 964.654 341.16 963.456C343.171 962.257 345.433 961.658 347.946 961.658C350.498 961.658 352.741 962.238 354.674 963.398C356.646 964.558 358.173 966.162 359.256 968.212C360.339 970.261 360.88 972.639 360.88 975.346C360.88 976.622 360.667 977.859 360.242 979.058C359.817 980.218 359.237 981.358 358.502 982.48C357.767 983.562 356.994 984.568 356.182 985.496L341.798 1002.08H359.372C360.068 1002.08 360.648 1002.34 361.112 1002.84C361.615 1003.34 361.866 1003.9 361.866 1004.52C361.866 1005.25 361.615 1005.85 361.112 1006.32C360.648 1006.78 360.068 1007.01 359.372 1007.01H337.332ZM381.238 1007.01C378.377 1007.01 375.902 1006.11 373.814 1004.29C371.765 1002.47 370.199 999.88 369.116 996.516C368.072 993.113 367.55 989.034 367.55 984.278C367.55 979.599 368.072 975.558 369.116 972.156C370.199 968.753 371.765 966.143 373.814 964.326C375.902 962.508 378.377 961.6 381.238 961.6C384.177 961.6 386.671 962.528 388.72 964.384C390.77 966.201 392.316 968.811 393.36 972.214C394.443 975.616 394.984 979.638 394.984 984.278C394.984 988.995 394.443 993.055 393.36 996.458C392.316 999.822 390.77 1002.43 388.72 1004.29C386.671 1006.11 384.177 1007.01 381.238 1007.01ZM381.238 1002.03C383.249 1002.03 384.892 1001.27 386.168 999.764C387.483 998.217 388.45 996.11 389.068 993.442C389.687 990.774 389.996 987.719 389.996 984.278C389.996 980.914 389.668 977.898 389.01 975.23C388.392 972.562 387.425 970.454 386.11 968.908C384.834 967.361 383.21 966.588 381.238 966.588C379.266 966.588 377.642 967.361 376.366 968.908C375.09 970.416 374.124 972.504 373.466 975.172C372.848 977.84 372.538 980.875 372.538 984.278C372.538 987.758 372.848 990.832 373.466 993.5C374.124 996.129 375.09 998.217 376.366 999.764C377.681 1001.27 379.305 1002.03 381.238 1002.03Z" fill="#D4F173"/>
<path d="M582.262 1007.01C581.566 1007.01 580.966 1006.78 580.464 1006.32C580 1005.85 579.768 1005.25 579.768 1004.52C579.768 1003.86 580 1003.3 580.464 1002.84L597.69 982.538C598.734 981.378 599.546 980.179 600.126 978.942C600.744 977.666 601.054 976.467 601.054 975.346C601.054 973.567 600.706 972.001 600.01 970.648C599.352 969.294 598.405 968.25 597.168 967.516C595.93 966.742 594.5 966.356 592.876 966.356C591.329 966.356 589.898 966.762 588.584 967.574C587.308 968.386 586.302 969.468 585.568 970.822C584.833 972.175 584.466 973.683 584.466 975.346C584.466 976.003 584.234 976.583 583.77 977.086C583.306 977.55 582.726 977.782 582.03 977.782C581.334 977.782 580.734 977.55 580.232 977.086C579.768 976.583 579.536 976.003 579.536 975.346C579.536 972.755 580.116 970.435 581.276 968.386C582.474 966.298 584.079 964.654 586.09 963.456C588.1 962.257 590.362 961.658 592.876 961.658C595.428 961.658 597.67 962.238 599.604 963.398C601.576 964.558 603.103 966.162 604.186 968.212C605.268 970.261 605.81 972.639 605.81 975.346C605.81 976.622 605.597 977.859 605.172 979.058C604.746 980.218 604.166 981.358 603.432 982.48C602.697 983.562 601.924 984.568 601.112 985.496L586.728 1002.08H604.302C604.998 1002.08 605.578 1002.34 606.042 1002.84C606.544 1003.34 606.796 1003.9 606.796 1004.52C606.796 1005.25 606.544 1005.85 606.042 1006.32C605.578 1006.78 604.998 1007.01 604.302 1007.01H582.262ZM626.168 1007.01C623.307 1007.01 620.832 1006.11 618.744 1004.29C616.695 1002.47 615.129 999.88 614.046 996.516C613.002 993.113 612.48 989.034 612.48 984.278C612.48 979.599 613.002 975.558 614.046 972.156C615.129 968.753 616.695 966.143 618.744 964.326C620.832 962.508 623.307 961.6 626.168 961.6C629.107 961.6 631.601 962.528 633.65 964.384C635.699 966.201 637.246 968.811 638.29 972.214C639.373 975.616 639.914 979.638 639.914 984.278C639.914 988.995 639.373 993.055 638.29 996.458C637.246 999.822 635.699 1002.43 633.65 1004.29C631.601 1006.11 629.107 1007.01 626.168 1007.01ZM626.168 1002.03C628.179 1002.03 629.822 1001.27 631.098 999.764C632.413 998.217 633.379 996.11 633.998 993.442C634.617 990.774 634.926 987.719 634.926 984.278C634.926 980.914 634.597 977.898 633.94 975.23C633.321 972.562 632.355 970.454 631.04 968.908C629.764 967.361 628.14 966.588 626.168 966.588C624.196 966.588 622.572 967.361 621.296 968.908C620.02 970.416 619.053 972.504 618.396 975.172C617.777 977.84 617.468 980.875 617.468 984.278C617.468 987.758 617.777 990.832 618.396 993.5C619.053 996.129 620.02 998.217 621.296 999.764C622.611 1001.27 624.235 1002.03 626.168 1002.03ZM649.324 1007.01C648.628 1007.01 648.029 1006.78 647.526 1006.32C647.062 1005.85 646.83 1005.25 646.83 1004.52C646.83 1003.86 647.062 1003.3 647.526 1002.84L664.752 982.538C665.796 981.378 666.608 980.179 667.188 978.942C667.807 977.666 668.116 976.467 668.116 975.346C668.116 973.567 667.768 972.001 667.072 970.648C666.415 969.294 665.467 968.25 664.23 967.516C662.993 966.742 661.562 966.356 659.938 966.356C658.391 966.356 656.961 966.762 655.646 967.574C654.37 968.386 653.365 969.468 652.63 970.822C651.895 972.175 651.528 973.683 651.528 975.346C651.528 976.003 651.296 976.583 650.832 977.086C650.368 977.55 649.788 977.782 649.092 977.782C648.396 977.782 647.797 977.55 647.294 977.086C646.83 976.583 646.598 976.003 646.598 975.346C646.598 972.755 647.178 970.435 648.338 968.386C649.537 966.298 651.141 964.654 653.152 963.456C655.163 962.257 657.425 961.658 659.938 961.658C662.49 961.658 664.733 962.238 666.666 963.398C668.638 964.558 670.165 966.162 671.248 968.212C672.331 970.261 672.872 972.639 672.872 975.346C672.872 976.622 672.659 977.859 672.234 979.058C671.809 980.218 671.229 981.358 670.494 982.48C669.759 983.562 668.986 984.568 668.174 985.496L653.79 1002.08H671.364C672.06 1002.08 672.64 1002.34 673.104 1002.84C673.607 1003.34 673.858 1003.9 673.858 1004.52C673.858 1005.25 673.607 1005.85 673.104 1006.32C672.64 1006.78 672.06 1007.01 671.364 1007.01H649.324ZM690.563 1007.01C689.867 1007.01 689.267 1006.78 688.765 1006.32C688.301 1005.85 688.069 1005.25 688.069 1004.52V967.574L682.791 969.488C682.288 969.72 681.824 969.836 681.399 969.836C680.664 969.836 680.065 969.604 679.601 969.14C679.137 968.676 678.905 968.096 678.905 967.4C678.905 966.897 679.021 966.433 679.253 966.008C679.523 965.582 679.949 965.273 680.529 965.08L689.461 961.948C689.654 961.87 689.847 961.812 690.041 961.774C690.273 961.696 690.466 961.658 690.621 961.658C691.355 961.658 691.935 961.909 692.361 962.412C692.825 962.876 693.057 963.456 693.057 964.152V1004.52C693.057 1005.25 692.805 1005.85 692.303 1006.32C691.839 1006.78 691.259 1007.01 690.563 1007.01Z" fill="#D4F173"/>
<path d="M895.258 1007.01C894.562 1007.01 893.962 1006.78 893.46 1006.32C892.996 1005.85 892.764 1005.25 892.764 1004.52C892.764 1003.86 892.996 1003.3 893.46 1002.84L910.686 982.538C911.73 981.378 912.542 980.179 913.122 978.942C913.74 977.666 914.05 976.467 914.05 975.346C914.05 973.567 913.702 972.001 913.006 970.648C912.348 969.294 911.401 968.25 910.164 967.516C908.926 966.742 907.496 966.356 905.872 966.356C904.325 966.356 902.894 966.762 901.58 967.574C900.304 968.386 899.298 969.468 898.564 970.822C897.829 972.175 897.462 973.683 897.462 975.346C897.462 976.003 897.23 976.583 896.766 977.086C896.302 977.55 895.722 977.782 895.026 977.782C894.33 977.782 893.73 977.55 893.228 977.086C892.764 976.583 892.532 976.003 892.532 975.346C892.532 972.755 893.112 970.435 894.272 968.386C895.47 966.298 897.075 964.654 899.086 963.456C901.096 962.257 903.358 961.658 905.872 961.658C908.424 961.658 910.666 962.238 912.6 963.398C914.572 964.558 916.099 966.162 917.182 968.212C918.264 970.261 918.806 972.639 918.806 975.346C918.806 976.622 918.593 977.859 918.168 979.058C917.742 980.218 917.162 981.358 916.428 982.48C915.693 983.562 914.92 984.568 914.108 985.496L899.724 1002.08H917.298C917.994 1002.08 918.574 1002.34 919.038 1002.84C919.54 1003.34 919.792 1003.9 919.792 1004.52C919.792 1005.25 919.54 1005.85 919.038 1006.32C918.574 1006.78 917.994 1007.01 917.298 1007.01H895.258ZM939.164 1007.01C936.303 1007.01 933.828 1006.11 931.74 1004.29C929.691 1002.47 928.125 999.88 927.042 996.516C925.998 993.113 925.476 989.034 925.476 984.278C925.476 979.599 925.998 975.558 927.042 972.156C928.125 968.753 929.691 966.143 931.74 964.326C933.828 962.508 936.303 961.6 939.164 961.6C942.103 961.6 944.597 962.528 946.646 964.384C948.696 966.201 950.242 968.811 951.286 972.214C952.369 975.616 952.91 979.638 952.91 984.278C952.91 988.995 952.369 993.055 951.286 996.458C950.242 999.822 948.696 1002.43 946.646 1004.29C944.597 1006.11 942.103 1007.01 939.164 1007.01ZM939.164 1002.03C941.175 1002.03 942.818 1001.27 944.094 999.764C945.409 998.217 946.376 996.11 946.994 993.442C947.613 990.774 947.922 987.719 947.922 984.278C947.922 980.914 947.594 977.898 946.936 975.23C946.318 972.562 945.351 970.454 944.036 968.908C942.76 967.361 941.136 966.588 939.164 966.588C937.192 966.588 935.568 967.361 934.292 968.908C933.016 970.416 932.05 972.504 931.392 975.172C930.774 977.84 930.464 980.875 930.464 984.278C930.464 987.758 930.774 990.832 931.392 993.5C932.05 996.129 933.016 998.217 934.292 999.764C935.607 1001.27 937.231 1002.03 939.164 1002.03ZM962.32 1007.01C961.624 1007.01 961.025 1006.78 960.522 1006.32C960.058 1005.85 959.826 1005.25 959.826 1004.52C959.826 1003.86 960.058 1003.3 960.522 1002.84L977.748 982.538C978.792 981.378 979.604 980.179 980.184 978.942C980.803 977.666 981.112 976.467 981.112 975.346C981.112 973.567 980.764 972.001 980.068 970.648C979.411 969.294 978.464 968.25 977.226 967.516C975.989 966.742 974.558 966.356 972.934 966.356C971.388 966.356 969.957 966.762 968.642 967.574C967.366 968.386 966.361 969.468 965.626 970.822C964.892 972.175 964.524 973.683 964.524 975.346C964.524 976.003 964.292 976.583 963.828 977.086C963.364 977.55 962.784 977.782 962.088 977.782C961.392 977.782 960.793 977.55 960.29 977.086C959.826 976.583 959.594 976.003 959.594 975.346C959.594 972.755 960.174 970.435 961.334 968.386C962.533 966.298 964.138 964.654 966.148 963.456C968.159 962.257 970.421 961.658 972.934 961.658C975.486 961.658 977.729 962.238 979.662 963.398C981.634 964.558 983.162 966.162 984.244 968.212C985.327 970.261 985.868 972.639 985.868 975.346C985.868 976.622 985.656 977.859 985.23 979.058C984.805 980.218 984.225 981.358 983.49 982.48C982.756 983.562 981.982 984.568 981.17 985.496L966.786 1002.08H984.36C985.056 1002.08 985.636 1002.34 986.1 1002.84C986.603 1003.34 986.854 1003.9 986.854 1004.52C986.854 1005.25 986.603 1005.85 986.1 1006.32C985.636 1006.78 985.056 1007.01 984.36 1007.01H962.32ZM996.135 1007.01C995.439 1007.01 994.839 1006.78 994.337 1006.32C993.873 1005.85 993.641 1005.25 993.641 1004.52C993.641 1003.86 993.873 1003.3 994.337 1002.84L1011.56 982.538C1012.61 981.378 1013.42 980.179 1014 978.942C1014.62 977.666 1014.93 976.467 1014.93 975.346C1014.93 973.567 1014.58 972.001 1013.88 970.648C1013.23 969.294 1012.28 968.25 1011.04 967.516C1009.8 966.742 1008.37 966.356 1006.75 966.356C1005.2 966.356 1003.77 966.762 1002.46 967.574C1001.18 968.386 1000.18 969.468 999.441 970.822C998.706 972.175 998.339 973.683 998.339 975.346C998.339 976.003 998.107 976.583 997.643 977.086C997.179 977.55 996.599 977.782 995.903 977.782C995.207 977.782 994.607 977.55 994.105 977.086C993.641 976.583 993.409 976.003 993.409 975.346C993.409 972.755 993.989 970.435 995.149 968.386C996.347 966.298 997.952 964.654 999.963 963.456C1001.97 962.257 1004.24 961.658 1006.75 961.658C1009.3 961.658 1011.54 962.238 1013.48 963.398C1015.45 964.558 1016.98 966.162 1018.06 968.212C1019.14 970.261 1019.68 972.639 1019.68 975.346C1019.68 976.622 1019.47 977.859 1019.04 979.058C1018.62 980.218 1018.04 981.358 1017.3 982.48C1016.57 983.562 1015.8 984.568 1014.98 985.496L1000.6 1002.08H1018.17C1018.87 1002.08 1019.45 1002.34 1019.91 1002.84C1020.42 1003.34 1020.67 1003.9 1020.67 1004.52C1020.67 1005.25 1020.42 1005.85 1019.91 1006.32C1019.45 1006.78 1018.87 1007.01 1018.17 1007.01H996.135Z" fill="#D4F173"/>
<path d="M1216.28 1007.01C1215.59 1007.01 1214.99 1006.78 1214.48 1006.32C1214.02 1005.85 1213.79 1005.25 1213.79 1004.52C1213.79 1003.86 1214.02 1003.3 1214.48 1002.84L1231.71 982.538C1232.75 981.378 1233.57 980.179 1234.15 978.942C1234.76 977.666 1235.07 976.467 1235.07 975.346C1235.07 973.567 1234.73 972.001 1234.03 970.648C1233.37 969.294 1232.42 968.25 1231.19 967.516C1229.95 966.742 1228.52 966.356 1226.9 966.356C1225.35 966.356 1223.92 966.762 1222.6 967.574C1221.33 968.386 1220.32 969.468 1219.59 970.822C1218.85 972.175 1218.49 973.683 1218.49 975.346C1218.49 976.003 1218.25 976.583 1217.79 977.086C1217.33 977.55 1216.75 977.782 1216.05 977.782C1215.35 977.782 1214.75 977.55 1214.25 977.086C1213.79 976.583 1213.56 976.003 1213.56 975.346C1213.56 972.755 1214.14 970.435 1215.3 968.386C1216.49 966.298 1218.1 964.654 1220.11 963.456C1222.12 962.257 1224.38 961.658 1226.9 961.658C1229.45 961.658 1231.69 962.238 1233.62 963.398C1235.6 964.558 1237.12 966.162 1238.21 968.212C1239.29 970.261 1239.83 972.639 1239.83 975.346C1239.83 976.622 1239.62 977.859 1239.19 979.058C1238.77 980.218 1238.19 981.358 1237.45 982.48C1236.72 983.562 1235.94 984.568 1235.13 985.496L1220.75 1002.08H1238.32C1239.02 1002.08 1239.6 1002.34 1240.06 1002.84C1240.56 1003.34 1240.82 1003.9 1240.82 1004.52C1240.82 1005.25 1240.56 1005.85 1240.06 1006.32C1239.6 1006.78 1239.02 1007.01 1238.32 1007.01H1216.28ZM1260.19 1007.01C1257.33 1007.01 1254.85 1006.11 1252.76 1004.29C1250.71 1002.47 1249.15 999.88 1248.07 996.516C1247.02 993.113 1246.5 989.034 1246.5 984.278C1246.5 979.599 1247.02 975.558 1248.07 972.156C1249.15 968.753 1250.71 966.143 1252.76 964.326C1254.85 962.508 1257.33 961.6 1260.19 961.6C1263.13 961.6 1265.62 962.528 1267.67 964.384C1269.72 966.201 1271.27 968.811 1272.31 972.214C1273.39 975.616 1273.93 979.638 1273.93 984.278C1273.93 988.995 1273.39 993.055 1272.31 996.458C1271.27 999.822 1269.72 1002.43 1267.67 1004.29C1265.62 1006.11 1263.13 1007.01 1260.19 1007.01ZM1260.19 1002.03C1262.2 1002.03 1263.84 1001.27 1265.12 999.764C1266.43 998.217 1267.4 996.11 1268.02 993.442C1268.64 990.774 1268.95 987.719 1268.95 984.278C1268.95 980.914 1268.62 977.898 1267.96 975.23C1267.34 972.562 1266.37 970.454 1265.06 968.908C1263.78 967.361 1262.16 966.588 1260.19 966.588C1258.22 966.588 1256.59 967.361 1255.32 968.908C1254.04 970.416 1253.07 972.504 1252.42 975.172C1251.8 977.84 1251.49 980.875 1251.49 984.278C1251.49 987.758 1251.8 990.832 1252.42 993.5C1253.07 996.129 1254.04 998.217 1255.32 999.764C1256.63 1001.27 1258.25 1002.03 1260.19 1002.03ZM1283.34 1007.01C1282.65 1007.01 1282.05 1006.78 1281.55 1006.32C1281.08 1005.85 1280.85 1005.25 1280.85 1004.52C1280.85 1003.86 1281.08 1003.3 1281.55 1002.84L1298.77 982.538C1299.82 981.378 1300.63 980.179 1301.21 978.942C1301.83 977.666 1302.14 976.467 1302.14 975.346C1302.14 973.567 1301.79 972.001 1301.09 970.648C1300.43 969.294 1299.49 968.25 1298.25 967.516C1297.01 966.742 1295.58 966.356 1293.96 966.356C1292.41 966.356 1290.98 966.762 1289.67 967.574C1288.39 968.386 1287.38 969.468 1286.65 970.822C1285.91 972.175 1285.55 973.683 1285.55 975.346C1285.55 976.003 1285.32 976.583 1284.85 977.086C1284.39 977.55 1283.81 977.782 1283.11 977.782C1282.42 977.782 1281.82 977.55 1281.31 977.086C1280.85 976.583 1280.62 976.003 1280.62 975.346C1280.62 972.755 1281.2 970.435 1282.36 968.386C1283.56 966.298 1285.16 964.654 1287.17 963.456C1289.18 962.257 1291.44 961.658 1293.96 961.658C1296.51 961.658 1298.75 962.238 1300.69 963.398C1302.66 964.558 1304.18 966.162 1305.27 968.212C1306.35 970.261 1306.89 972.639 1306.89 975.346C1306.89 976.622 1306.68 977.859 1306.25 979.058C1305.83 980.218 1305.25 981.358 1304.51 982.48C1303.78 983.562 1303.01 984.568 1302.19 985.496L1287.81 1002.08H1305.38C1306.08 1002.08 1306.66 1002.34 1307.12 1002.84C1307.63 1003.34 1307.88 1003.9 1307.88 1004.52C1307.88 1005.25 1307.63 1005.85 1307.12 1006.32C1306.66 1006.78 1306.08 1007.01 1305.38 1007.01H1283.34ZM1328.29 1007.19C1325.51 1007.19 1323.04 1006.61 1320.87 1005.45C1318.7 1004.25 1316.98 1002.63 1315.71 1000.58C1314.47 998.488 1313.85 996.148 1313.85 993.558C1313.85 992.823 1314.06 992.204 1314.49 991.702C1314.92 991.199 1315.48 990.948 1316.17 990.948C1316.87 990.948 1317.43 991.199 1317.85 991.702C1318.28 992.204 1318.49 992.823 1318.49 993.558C1318.49 995.259 1318.9 996.806 1319.71 998.198C1320.56 999.59 1321.7 1000.69 1323.13 1001.5C1324.6 1002.32 1326.24 1002.72 1328.06 1002.72C1330.92 1002.72 1333.19 1001.93 1334.85 1000.34C1336.51 998.758 1337.34 996.632 1337.34 993.964C1337.34 992.185 1336.96 990.6 1336.18 989.208C1335.41 987.816 1334.35 986.733 1332.99 985.96C1331.68 985.186 1330.19 984.8 1328.53 984.8C1327.83 984.8 1327.25 984.568 1326.79 984.104C1326.32 983.601 1326.09 983.002 1326.09 982.306C1326.09 981.61 1326.32 981.03 1326.79 980.566C1327.25 980.102 1327.83 979.87 1328.53 979.87C1329.8 979.87 1330.98 979.56 1332.06 978.942C1333.15 978.284 1334.04 977.414 1334.73 976.332C1335.43 975.249 1335.78 974.07 1335.78 972.794C1335.78 970.822 1335.1 969.198 1333.75 967.922C1332.39 966.607 1330.61 965.95 1328.41 965.95C1326.86 965.95 1325.45 966.259 1324.18 966.878C1322.9 967.496 1321.89 968.328 1321.16 969.372C1320.46 970.377 1320.12 971.537 1320.12 972.852C1320.12 973.586 1319.9 974.205 1319.48 974.708C1319.05 975.172 1318.51 975.404 1317.85 975.404C1317.16 975.404 1316.6 975.172 1316.17 974.708C1315.75 974.244 1315.53 973.664 1315.53 972.968C1315.53 970.802 1316.09 968.85 1317.22 967.11C1318.34 965.37 1319.86 963.997 1321.8 962.992C1323.73 961.986 1325.94 961.484 1328.41 961.484C1330.65 961.484 1332.68 961.986 1334.5 962.992C1336.32 963.958 1337.75 965.312 1338.79 967.052C1339.87 968.753 1340.42 970.667 1340.42 972.794C1340.42 974.147 1340.09 975.442 1339.43 976.68C1338.77 977.878 1337.92 978.942 1336.88 979.87C1335.83 980.798 1334.71 981.532 1333.51 982.074C1335.49 982.692 1337.13 983.601 1338.44 984.8C1339.76 985.998 1340.71 987.39 1341.29 988.976C1341.9 990.561 1342.21 992.243 1342.21 994.022C1342.21 996.535 1341.6 998.797 1340.36 1000.81C1339.12 1002.78 1337.44 1004.35 1335.31 1005.51C1333.19 1006.63 1330.85 1007.19 1328.29 1007.19Z" fill="#D4F173"/>
<path d="M67.5281 680.998C66.9948 680.998 66.5281 680.798 66.1281 680.398C65.7281 679.998 65.5281 679.481 65.5281 678.848V671.798H48.0281C47.3948 671.798 46.8948 671.615 46.5281 671.248C46.1615 670.848 45.9448 670.398 45.8781 669.898C45.8448 669.365 45.9781 668.881 46.2781 668.448L65.8781 642.798C66.0781 642.531 66.3115 642.315 66.5781 642.148C66.8781 641.981 67.2448 641.898 67.6781 641.898C68.2448 641.898 68.7115 642.115 69.0781 642.548C69.4781 642.948 69.6781 643.465 69.6781 644.098V667.948H73.3281C73.8948 667.948 74.3781 668.098 74.7781 668.398C75.2115 668.698 75.4281 669.198 75.4281 669.898C75.4281 670.398 75.2115 670.848 74.7781 671.248C74.3781 671.615 73.8948 671.798 73.3281 671.798H69.6781V678.848C69.6781 679.481 69.4781 679.998 69.0781 680.398C68.6781 680.798 68.1615 680.998 67.5281 680.998ZM50.3781 669.448L49.4781 667.948H65.5281V646.798L66.6781 648.098L50.3781 669.448ZM91.8488 680.998C89.3822 680.998 87.2488 680.215 85.4488 678.648C83.6822 677.081 82.3322 674.848 81.3988 671.948C80.4988 669.015 80.0488 665.498 80.0488 661.398C80.0488 657.365 80.4988 653.881 81.3988 650.948C82.3322 648.015 83.6822 645.765 85.4488 644.198C87.2488 642.631 89.3822 641.848 91.8488 641.848C94.3822 641.848 96.5322 642.648 98.2988 644.248C100.065 645.815 101.399 648.065 102.299 650.998C103.232 653.931 103.699 657.398 103.699 661.398C103.699 665.465 103.232 668.965 102.299 671.898C101.399 674.798 100.065 677.048 98.2988 678.648C96.5322 680.215 94.3822 680.998 91.8488 680.998ZM91.8488 676.698C93.5822 676.698 94.9988 676.048 96.0988 674.748C97.2322 673.415 98.0655 671.598 98.5988 669.298C99.1322 666.998 99.3988 664.365 99.3988 661.398C99.3988 658.498 99.1155 655.898 98.5488 653.598C98.0155 651.298 97.1822 649.481 96.0488 648.148C94.9488 646.815 93.5488 646.148 91.8488 646.148C90.1488 646.148 88.7488 646.815 87.6488 648.148C86.5488 649.448 85.7155 651.248 85.1488 653.548C84.6155 655.848 84.3488 658.465 84.3488 661.398C84.3488 664.398 84.6155 667.048 85.1488 669.348C85.7155 671.615 86.5488 673.415 87.6488 674.748C88.7822 676.048 90.1822 676.698 91.8488 676.698ZM135.159 680.998C132.693 680.998 130.559 680.215 128.759 678.648C126.993 677.081 125.643 674.848 124.709 671.948C123.809 669.015 123.359 665.498 123.359 661.398C123.359 657.365 123.809 653.881 124.709 650.948C125.643 648.015 126.993 645.765 128.759 644.198C130.559 642.631 132.693 641.848 135.159 641.848C137.693 641.848 139.843 642.648 141.609 644.248C143.376 645.815 144.709 648.065 145.609 650.998C146.543 653.931 147.009 657.398 147.009 661.398C147.009 665.465 146.543 668.965 145.609 671.898C144.709 674.798 143.376 677.048 141.609 678.648C139.843 680.215 137.693 680.998 135.159 680.998ZM135.159 676.698C136.893 676.698 138.309 676.048 139.409 674.748C140.543 673.415 141.376 671.598 141.909 669.298C142.443 666.998 142.709 664.365 142.709 661.398C142.709 658.498 142.426 655.898 141.859 653.598C141.326 651.298 140.493 649.481 139.359 648.148C138.259 646.815 136.859 646.148 135.159 646.148C133.459 646.148 132.059 646.815 130.959 648.148C129.859 649.448 129.026 651.248 128.459 653.548C127.926 655.848 127.659 658.465 127.659 661.398C127.659 664.398 127.926 667.048 128.459 669.348C129.026 671.615 129.859 673.415 130.959 674.748C132.093 676.048 133.493 676.698 135.159 676.698ZM163.821 680.998C161.355 680.998 159.221 680.215 157.421 678.648C155.655 677.081 154.305 674.848 153.371 671.948C152.471 669.015 152.021 665.498 152.021 661.398C152.021 657.365 152.471 653.881 153.371 650.948C154.305 648.015 155.655 645.765 157.421 644.198C159.221 642.631 161.355 641.848 163.821 641.848C166.355 641.848 168.505 642.648 170.271 644.248C172.038 645.815 173.371 648.065 174.271 650.998C175.205 653.931 175.671 657.398 175.671 661.398C175.671 665.465 175.205 668.965 174.271 671.898C173.371 674.798 172.038 677.048 170.271 678.648C168.505 680.215 166.355 680.998 163.821 680.998ZM163.821 676.698C165.555 676.698 166.971 676.048 168.071 674.748C169.205 673.415 170.038 671.598 170.571 669.298C171.105 666.998 171.371 664.365 171.371 661.398C171.371 658.498 171.088 655.898 170.521 653.598C169.988 651.298 169.155 649.481 168.021 648.148C166.921 646.815 165.521 646.148 163.821 646.148C162.121 646.148 160.721 646.815 159.621 648.148C158.521 649.448 157.688 651.248 157.121 653.548C156.588 655.848 156.321 658.465 156.321 661.398C156.321 664.398 156.588 667.048 157.121 669.348C157.688 671.615 158.521 673.415 159.621 674.748C160.755 676.048 162.155 676.698 163.821 676.698ZM192.484 680.998C190.017 680.998 187.884 680.215 186.084 678.648C184.317 677.081 182.967 674.848 182.034 671.948C181.134 669.015 180.684 665.498 180.684 661.398C180.684 657.365 181.134 653.881 182.034 650.948C182.967 648.015 184.317 645.765 186.084 644.198C187.884 642.631 190.017 641.848 192.484 641.848C195.017 641.848 197.167 642.648 198.934 644.248C200.7 645.815 202.034 648.065 202.934 650.998C203.867 653.931 204.334 657.398 204.334 661.398C204.334 665.465 203.867 668.965 202.934 671.898C202.034 674.798 200.7 677.048 198.934 678.648C197.167 680.215 195.017 680.998 192.484 680.998ZM192.484 676.698C194.217 676.698 195.634 676.048 196.734 674.748C197.867 673.415 198.7 671.598 199.234 669.298C199.767 666.998 200.034 664.365 200.034 661.398C200.034 658.498 199.75 655.898 199.184 653.598C198.65 651.298 197.817 649.481 196.684 648.148C195.584 646.815 194.184 646.148 192.484 646.148C190.784 646.148 189.384 646.815 188.284 648.148C187.184 649.448 186.35 651.248 185.784 653.548C185.25 655.848 184.984 658.465 184.984 661.398C184.984 664.398 185.25 667.048 185.784 669.348C186.35 671.615 187.184 673.415 188.284 674.748C189.417 676.048 190.817 676.698 192.484 676.698Z" fill="#D4F173"/>
<path d="M59.8281 445.348C57.5948 445.348 55.5948 444.831 53.8281 443.798C52.0948 442.731 50.7115 441.298 49.6781 439.498C48.6781 437.698 48.1781 435.665 48.1781 433.398C48.1781 431.198 48.6781 429.231 49.6781 427.498C50.7115 425.765 52.0948 424.398 53.8281 423.398C55.5948 422.398 57.5948 421.898 59.8281 421.898C62.0615 421.898 64.0448 422.398 65.7781 423.398C67.5448 424.398 68.9281 425.765 69.9281 427.498C70.9615 429.231 71.4615 431.198 71.4281 433.398C71.4281 435.665 70.9115 437.698 69.8781 439.498C68.8781 441.298 67.4948 442.731 65.7281 443.798C63.9948 444.831 62.0281 445.348 59.8281 445.348ZM59.8281 441.548C61.2281 441.548 62.4781 441.181 63.5781 440.448C64.7115 439.715 65.5948 438.748 66.2281 437.548C66.8615 436.315 67.1781 434.931 67.1781 433.398C67.2115 431.931 66.9115 430.615 66.2781 429.448C65.6448 428.281 64.7615 427.365 63.6281 426.698C62.5281 426.031 61.2615 425.698 59.8281 425.698C58.4281 425.698 57.1615 426.031 56.0281 426.698C54.9281 427.365 54.0448 428.281 53.3781 429.448C52.7448 430.615 52.4281 431.931 52.4281 433.398C52.4281 434.931 52.7448 436.315 53.3781 437.548C54.0115 438.748 54.8781 439.715 55.9781 440.448C57.1115 441.181 58.3948 441.548 59.8281 441.548ZM59.8281 425.148C57.9948 425.148 56.3281 424.731 54.8281 423.898C53.3615 423.065 52.2115 421.948 51.3781 420.548C50.5448 419.115 50.1281 417.481 50.1281 415.648C50.1281 413.848 50.5448 412.231 51.3781 410.798C52.2115 409.331 53.3615 408.181 54.8281 407.348C56.3281 406.481 57.9948 406.048 59.8281 406.048C61.6948 406.015 63.3615 406.415 64.8281 407.248C66.2948 408.081 67.4448 409.231 68.2781 410.698C69.1448 412.165 69.5615 413.815 69.5281 415.648C69.5281 417.481 69.0948 419.115 68.2281 420.548C67.3615 421.948 66.1948 423.065 64.7281 423.898C63.2948 424.731 61.6615 425.148 59.8281 425.148ZM59.8281 421.548C60.8948 421.548 61.8448 421.281 62.6781 420.748C63.5115 420.215 64.1781 419.498 64.6781 418.598C65.1781 417.698 65.4281 416.681 65.4281 415.548C65.4615 414.481 65.2281 413.531 64.7281 412.698C64.2615 411.831 63.5948 411.165 62.7281 410.698C61.8948 410.198 60.9281 409.948 59.8281 409.948C58.2281 409.948 56.8948 410.481 55.8281 411.548C54.7615 412.615 54.2115 413.948 54.1781 415.548C54.1448 417.248 54.6615 418.681 55.7281 419.848C56.8281 420.981 58.1948 421.548 59.8281 421.548ZM88.8215 445.248C86.3548 445.248 84.2215 444.465 82.4215 442.898C80.6548 441.331 79.3048 439.098 78.3715 436.198C77.4715 433.265 77.0215 429.748 77.0215 425.648C77.0215 421.615 77.4715 418.131 78.3715 415.198C79.3048 412.265 80.6548 410.015 82.4215 408.448C84.2215 406.881 86.3548 406.098 88.8215 406.098C91.3548 406.098 93.5048 406.898 95.2715 408.498C97.0382 410.065 98.3715 412.315 99.2715 415.248C100.205 418.181 100.671 421.648 100.671 425.648C100.671 429.715 100.205 433.215 99.2715 436.148C98.3715 439.048 97.0382 441.298 95.2715 442.898C93.5048 444.465 91.3548 445.248 88.8215 445.248ZM88.8215 440.948C90.5548 440.948 91.9715 440.298 93.0715 438.998C94.2048 437.665 95.0382 435.848 95.5715 433.548C96.1048 431.248 96.3715 428.615 96.3715 425.648C96.3715 422.748 96.0882 420.148 95.5215 417.848C94.9882 415.548 94.1548 413.731 93.0215 412.398C91.9215 411.065 90.5215 410.398 88.8215 410.398C87.1215 410.398 85.7215 411.065 84.6215 412.398C83.5215 413.698 82.6882 415.498 82.1215 417.798C81.5882 420.098 81.3215 422.715 81.3215 425.648C81.3215 428.648 81.5882 431.298 82.1215 433.598C82.6882 435.865 83.5215 437.665 84.6215 438.998C85.7548 440.298 87.1548 440.948 88.8215 440.948ZM132.132 445.248C129.665 445.248 127.532 444.465 125.732 442.898C123.965 441.331 122.615 439.098 121.682 436.198C120.782 433.265 120.332 429.748 120.332 425.648C120.332 421.615 120.782 418.131 121.682 415.198C122.615 412.265 123.965 410.015 125.732 408.448C127.532 406.881 129.665 406.098 132.132 406.098C134.665 406.098 136.815 406.898 138.582 408.498C140.349 410.065 141.682 412.315 142.582 415.248C143.515 418.181 143.982 421.648 143.982 425.648C143.982 429.715 143.515 433.215 142.582 436.148C141.682 439.048 140.349 441.298 138.582 442.898C136.815 444.465 134.665 445.248 132.132 445.248ZM132.132 440.948C133.865 440.948 135.282 440.298 136.382 438.998C137.515 437.665 138.349 435.848 138.882 433.548C139.415 431.248 139.682 428.615 139.682 425.648C139.682 422.748 139.399 420.148 138.832 417.848C138.299 415.548 137.465 413.731 136.332 412.398C135.232 411.065 133.832 410.398 132.132 410.398C130.432 410.398 129.032 411.065 127.932 412.398C126.832 413.698 125.999 415.498 125.432 417.798C124.899 420.098 124.632 422.715 124.632 425.648C124.632 428.648 124.899 431.298 125.432 433.598C125.999 435.865 126.832 437.665 127.932 438.998C129.065 440.298 130.465 440.948 132.132 440.948ZM160.794 445.248C158.327 445.248 156.194 444.465 154.394 442.898C152.627 441.331 151.277 439.098 150.344 436.198C149.444 433.265 148.994 429.748 148.994 425.648C148.994 421.615 149.444 418.131 150.344 415.198C151.277 412.265 152.627 410.015 154.394 408.448C156.194 406.881 158.327 406.098 160.794 406.098C163.327 406.098 165.477 406.898 167.244 408.498C169.011 410.065 170.344 412.315 171.244 415.248C172.177 418.181 172.644 421.648 172.644 425.648C172.644 429.715 172.177 433.215 171.244 436.148C170.344 439.048 169.011 441.298 167.244 442.898C165.477 444.465 163.327 445.248 160.794 445.248ZM160.794 440.948C162.527 440.948 163.944 440.298 165.044 438.998C166.177 437.665 167.011 435.848 167.544 433.548C168.077 431.248 168.344 428.615 168.344 425.648C168.344 422.748 168.061 420.148 167.494 417.848C166.961 415.548 166.127 413.731 164.994 412.398C163.894 411.065 162.494 410.398 160.794 410.398C159.094 410.398 157.694 411.065 156.594 412.398C155.494 413.698 154.661 415.498 154.094 417.798C153.561 420.098 153.294 422.715 153.294 425.648C153.294 428.648 153.561 431.298 154.094 433.598C154.661 435.865 155.494 437.665 156.594 438.998C157.727 440.298 159.127 440.948 160.794 440.948ZM189.456 445.248C186.99 445.248 184.856 444.465 183.056 442.898C181.29 441.331 179.94 439.098 179.006 436.198C178.106 433.265 177.656 429.748 177.656 425.648C177.656 421.615 178.106 418.131 179.006 415.198C179.94 412.265 181.29 410.015 183.056 408.448C184.856 406.881 186.99 406.098 189.456 406.098C191.99 406.098 194.14 406.898 195.906 408.498C197.673 410.065 199.006 412.315 199.906 415.248C200.84 418.181 201.306 421.648 201.306 425.648C201.306 429.715 200.84 433.215 199.906 436.148C199.006 439.048 197.673 441.298 195.906 442.898C194.14 444.465 191.99 445.248 189.456 445.248ZM189.456 440.948C191.19 440.948 192.606 440.298 193.706 438.998C194.84 437.665 195.673 435.848 196.206 433.548C196.74 431.248 197.006 428.615 197.006 425.648C197.006 422.748 196.723 420.148 196.156 417.848C195.623 415.548 194.79 413.731 193.656 412.398C192.556 411.065 191.156 410.398 189.456 410.398C187.756 410.398 186.356 411.065 185.256 412.398C184.156 413.698 183.323 415.498 182.756 417.798C182.223 420.098 181.956 422.715 181.956 425.648C181.956 428.648 182.223 431.298 182.756 433.598C183.323 435.865 184.156 437.665 185.256 438.998C186.39 440.298 187.79 440.948 189.456 440.948Z" fill="#D4F173"/>
<path d="M273.805 209.639H1505.73" stroke="#0DB131" stroke-width="9"/>
<path d="M273.805 927.925H1505.73" stroke="#0DB131" stroke-width="9"/>
<path d="M273.805 671.107H1505.73" stroke="#0DB131" stroke-width="9"/>
<path d="M273.805 437.363H1505.73" stroke="#0DB131" stroke-width="9"/>
<defs>
<filter id="filter0_d_316_161" x="0.700001" y="0.700001" width="1641.59" height="1484.09" filterUnits="userSpaceOnUse" color-interpolation-filters="sRGB">
<feFlood flood-opacity="0" result="BackgroundImageFix"/>
<feColorMatrix in="SourceAlpha" type="matrix" values="0 0 0 0 0 0 0 0 0 0 0 0 0 0 0 0 0 0 127 0" result="hardAlpha"/>
<feOffset dx="17" dy="29"/>
<feGaussianBlur stdDeviation="18.65"/>
<feComposite in2="hardAlpha" operator="out"/>
<feColorMatrix type="matrix" values="0 0 0 0 0 0 0 0 0 0 0 0 0 0 0 0 0 0 0.25 0"/>
<feBlend mode="normal" in2="BackgroundImageFix" result="effect1_dropShadow_316_161"/>
<feBlend mode="normal" in="SourceGraphic" in2="effect1_dropShadow_316_161" result="shape"/>
</filter>
<linearGradient id="paint0_linear_316_161" x1="1511.31" y1="377.335" x2="343.46" y2="1542.19" gradientUnits="userSpaceOnUse">
<stop offset="0.0178556" stop-color="#3DEF0E"/>
<stop offset="1" stop-color="#239C3E"/>
</linearGradient>
</defs>
</svg>
