<svg width="2177" height="1270" viewBox="0 0 2177 1270" fill="none" xmlns="http://www.w3.org/2000/svg">
<g filter="url(#filter0_d_357_24)">
<rect x="26" y="21" width="2117" height="1210" rx="151" fill="white"/>
</g>
<path d="M143.5 467.125H151.375V459.375H159.125V451.625H174.5V443.875H182.25V436.25H190V414.375H182.25V406.625H160.375V414.375H152.75V437.5H143.5V413H151.375V405.25H159.125V397.625H183.625V405.25H191.25V413H199V437.5H191.25V445.25H183.625V453H175.875V460.75H160.375V468.5H152.75V490.25H199V499.5H143.5V467.125Z" fill="#80D6B8"/>
<line x1="152" y1="179.5" x2="1977" y2="179.5" stroke="black"/>
<line x1="152" y1="350.5" x2="1977" y2="350.5" stroke="black"/>
<path d="M151.375 650.875H143.5V634.125H152.75V649.625H160.375V657.25H182.25V649.625H190V627.75H182.25V620H159.125V610.875H182.25V603.25H190V581.375H182.25V573.625H160.375V581.375H152.75V596.875H143.5V580H151.375V572.25H159.125V564.625H183.625V572.25H191.25V580H199V604.5H191.25V612.25H183.625V618.625H191.25V626.375H199V650.875H191.25V658.625H183.625V666.5H159.125V658.625H151.375V650.875Z" fill="#80D6B8"/>
<path d="M174.375 235.625H159V226.625H183.5V328.5H174.375V235.625Z" fill="#80D6B8"/>
<path d="M140.25 800.875H148V793.125H155.625V777.625H163V762.25H170.625V746.75H178.25V731.25H185.875V723.625H194.625V800.875H202.25V809.875H194.625V825.5H185.875V809.875H140.25V800.875ZM185.875 800.875V748.125H179.625V763.5H172V779H164.375V794.5H156.75V800.875H185.875Z" fill="#80D6B8"/>
<line x1="152" y1="521.5" x2="1977" y2="521.5" stroke="black"/>
<line x1="152" y1="692.5" x2="1977" y2="692.5" stroke="black"/>
<line x1="152" y1="867.5" x2="1977" y2="867.5" stroke="black"/>
<defs>
<filter id="filter0_d_357_24" x="0.799999" y="0.799999" width="2175.4" height="1268.4" filterUnits="userSpaceOnUse" color-interpolation-filters="sRGB">
<feFlood flood-opacity="0" result="BackgroundImageFix"/>
<feColorMatrix in="SourceAlpha" type="matrix" values="0 0 0 0 0 0 0 0 0 0 0 0 0 0 0 0 0 0 127 0" result="hardAlpha"/>
<feMorphology radius="11" operator="dilate" in="SourceAlpha" result="effect1_dropShadow_357_24"/>
<feOffset dx="4" dy="9"/>
<feGaussianBlur stdDeviation="9.1"/>
<feComposite in2="hardAlpha" operator="out"/>
<feColorMatrix type="matrix" values="0 0 0 0 0 0 0 0 0 0 0 0 0 0 0 0 0 0 0.25 0"/>
<feBlend mode="normal" in2="BackgroundImageFix" result="effect1_dropShadow_357_24"/>
<feBlend mode="normal" in="SourceGraphic" in2="effect1_dropShadow_357_24" result="shape"/>
</filter>
</defs>
</svg>
