<svg width="2155" height="1248" viewBox="0 0 2155 1248" fill="none" xmlns="http://www.w3.org/2000/svg">
<g filter="url(#filter0_d_416_40)">
<path d="M15 161C15 77.605 82.605 10 166 10H1981C2064.4 10 2132 77.605 2132 161V1069C2132 1152.39 2064.39 1220 1981 1220H166C82.605 1220 15 1152.39 15 1069V161Z" fill="#CFDAE4"/>
</g>
<path d="M132.5 456.125H140.375V448.375H148.125V440.625H163.5V432.875H171.25V425.25H179V403.375H171.25V395.625H149.375V403.375H141.75V426.5H132.5V402H140.375V394.25H148.125V386.625H172.625V394.25H180.25V402H188V426.5H180.25V434.25H172.625V442H164.875V449.75H149.375V457.5H141.75V479.25H188V488.5H132.5V456.125Z" fill="#80D6B8"/>
<path d="M129.25 789.875H137V782.125H144.625V766.625H152V751.25H159.625V735.75H167.25V720.25H174.875V712.625H183.625V789.875H191.25V798.875H183.625V814.5H174.875V798.875H129.25V789.875ZM174.875 789.875V737.125H168.625V752.5H161V768H153.375V783.5H145.75V789.875H174.875Z" fill="#80D6B8"/>
<path d="M163.375 224.625H148V215.625H172.5V317.5H163.375V224.625Z" fill="#80D6B8"/>
<line x1="141" y1="681.5" x2="1966" y2="681.5" stroke="black"/>
<line x1="141" y1="339.5" x2="1966" y2="339.5" stroke="black"/>
<line x1="356" y1="852.5" x2="1682" y2="852.5" stroke="black"/>
<line x1="141" y1="510.5" x2="1966" y2="510.5" stroke="black"/>
<path d="M140.375 639.875H132.5V623.125H141.75V638.625H149.375V646.25H171.25V638.625H179V616.75H171.25V609H148.125V599.875H171.25V592.25H179V570.375H171.25V562.625H149.375V570.375H141.75V585.875H132.5V569H140.375V561.25H148.125V553.625H172.625V561.25H180.25V569H188V593.5H180.25V601.25H172.625V607.625H180.25V615.375H188V639.875H180.25V647.625H172.625V655.5H148.125V647.625H140.375V639.875Z" fill="#80D6B8"/>
<line x1="141" y1="852.5" x2="1966" y2="852.5" stroke="black"/>
<defs>
<filter id="filter0_d_416_40" x="0.799999" y="0.799999" width="2153.4" height="1246.4" filterUnits="userSpaceOnUse" color-interpolation-filters="sRGB">
<feFlood flood-opacity="0" result="BackgroundImageFix"/>
<feColorMatrix in="SourceAlpha" type="matrix" values="0 0 0 0 0 0 0 0 0 0 0 0 0 0 0 0 0 0 127 0" result="hardAlpha"/>
<feOffset dx="4" dy="9"/>
<feGaussianBlur stdDeviation="9.1"/>
<feComposite in2="hardAlpha" operator="out"/>
<feColorMatrix type="matrix" values="0 0 0 0 0 0 0 0 0 0 0 0 0 0 0 0 0 0 0.25 0"/>
<feBlend mode="normal" in2="BackgroundImageFix" result="effect1_dropShadow_416_40"/>
<feBlend mode="normal" in="SourceGraphic" in2="effect1_dropShadow_416_40" result="shape"/>
</filter>
</defs>
</svg>
