<svg width="1643" height="1485" viewBox="0 0 1643 1485" fill="none" xmlns="http://www.w3.org/2000/svg">
<g filter="url(#filter0_d_416_35)">
<rect x="21" y="9" width="1566.99" height="1409.49" rx="103" fill="url(#paint0_linear_416_35)" shape-rendering="crispEdges"/>
</g>
<path d="M57.0762 224.546C56.4762 224.546 55.9595 224.346 55.5262 223.946C55.1262 223.546 54.9262 223.029 54.9262 222.396V190.546L50.3762 192.196C49.9428 192.396 49.5428 192.496 49.1762 192.496C48.5428 192.496 48.0262 192.296 47.6262 191.896C47.2262 191.496 47.0262 190.996 47.0262 190.396C47.0262 189.963 47.1262 189.563 47.3262 189.196C47.5595 188.829 47.9262 188.563 48.4262 188.396L56.1262 185.696C56.2928 185.629 56.4595 185.579 56.6262 185.546C56.8262 185.479 56.9928 185.446 57.1262 185.446C57.7595 185.446 58.2595 185.663 58.6262 186.096C59.0262 186.496 59.2262 186.996 59.2262 187.596V222.396C59.2262 223.029 59.0095 223.546 58.5762 223.946C58.1762 224.346 57.6762 224.546 57.0762 224.546ZM79.2168 224.546C76.9501 224.546 74.9335 224.046 73.1668 223.046C71.4001 222.013 70.0001 220.613 68.9668 218.846C67.9668 217.079 67.4668 215.046 67.4668 212.746C67.4668 210.479 67.9668 208.463 68.9668 206.696C70.0001 204.896 71.4001 203.496 73.1668 202.496C74.9335 201.463 76.9501 200.946 79.2168 200.946C81.4835 200.946 83.5001 201.463 85.2668 202.496C87.0335 203.496 88.4168 204.896 89.4168 206.696C90.4501 208.463 90.9668 210.479 90.9668 212.746C90.9668 215.046 90.4501 217.079 89.4168 218.846C88.4168 220.613 87.0335 222.013 85.2668 223.046C83.5001 224.046 81.4835 224.546 79.2168 224.546ZM79.1668 220.646C80.6668 220.646 82.0001 220.313 83.1668 219.646C84.3335 218.979 85.2501 218.046 85.9168 216.846C86.5835 215.646 86.9168 214.279 86.9168 212.746C86.9168 211.213 86.5835 209.863 85.9168 208.696C85.2501 207.496 84.3335 206.546 83.1668 205.846C82.0001 205.146 80.6668 204.796 79.1668 204.796C77.7001 204.796 76.3835 205.146 75.2168 205.846C74.0835 206.546 73.1835 207.496 72.5168 208.696C71.8501 209.863 71.5168 211.213 71.5168 212.746C71.5168 214.279 71.8501 215.646 72.5168 216.846C73.1835 218.046 74.0835 218.979 75.2168 219.646C76.3835 220.313 77.7001 220.646 79.1668 220.646ZM68.9668 206.696L81.1168 186.646C81.5835 185.879 82.2168 185.496 83.0168 185.496C83.5835 185.496 84.0668 185.663 84.4668 185.996C84.8668 186.329 85.1001 186.763 85.1668 187.296C85.2668 187.796 85.1668 188.279 84.8668 188.746L76.9668 201.696L68.9668 206.696ZM107.521 224.546C105.054 224.546 102.921 223.763 101.121 222.196C99.354 220.629 98.004 218.396 97.0707 215.496C96.1707 212.563 95.7207 209.046 95.7207 204.946C95.7207 200.913 96.1707 197.429 97.0707 194.496C98.004 191.563 99.354 189.313 101.121 187.746C102.921 186.179 105.054 185.396 107.521 185.396C110.054 185.396 112.204 186.196 113.971 187.796C115.737 189.363 117.071 191.613 117.971 194.546C118.904 197.479 119.371 200.946 119.371 204.946C119.371 209.013 118.904 212.513 117.971 215.446C117.071 218.346 115.737 220.596 113.971 222.196C112.204 223.763 110.054 224.546 107.521 224.546ZM107.521 220.246C109.254 220.246 110.671 219.596 111.771 218.296C112.904 216.963 113.737 215.146 114.271 212.846C114.804 210.546 115.071 207.913 115.071 204.946C115.071 202.046 114.787 199.446 114.221 197.146C113.687 194.846 112.854 193.029 111.721 191.696C110.621 190.363 109.221 189.696 107.521 189.696C105.821 189.696 104.421 190.363 103.321 191.696C102.221 192.996 101.387 194.796 100.821 197.096C100.287 199.396 100.021 202.013 100.021 204.946C100.021 207.946 100.287 210.596 100.821 212.896C101.387 215.163 102.221 216.963 103.321 218.296C104.454 219.596 105.854 220.246 107.521 220.246ZM150.831 224.546C148.365 224.546 146.231 223.763 144.431 222.196C142.665 220.629 141.315 218.396 140.381 215.496C139.481 212.563 139.031 209.046 139.031 204.946C139.031 200.913 139.481 197.429 140.381 194.496C141.315 191.563 142.665 189.313 144.431 187.746C146.231 186.179 148.365 185.396 150.831 185.396C153.365 185.396 155.515 186.196 157.281 187.796C159.048 189.363 160.381 191.613 161.281 194.546C162.215 197.479 162.681 200.946 162.681 204.946C162.681 209.013 162.215 212.513 161.281 215.446C160.381 218.346 159.048 220.596 157.281 222.196C155.515 223.763 153.365 224.546 150.831 224.546ZM150.831 220.246C152.565 220.246 153.981 219.596 155.081 218.296C156.215 216.963 157.048 215.146 157.581 212.846C158.115 210.546 158.381 207.913 158.381 204.946C158.381 202.046 158.098 199.446 157.531 197.146C156.998 194.846 156.165 193.029 155.031 191.696C153.931 190.363 152.531 189.696 150.831 189.696C149.131 189.696 147.731 190.363 146.631 191.696C145.531 192.996 144.698 194.796 144.131 197.096C143.598 199.396 143.331 202.013 143.331 204.946C143.331 207.946 143.598 210.596 144.131 212.896C144.698 215.163 145.531 216.963 146.631 218.296C147.765 219.596 149.165 220.246 150.831 220.246ZM179.493 224.546C177.027 224.546 174.893 223.763 173.093 222.196C171.327 220.629 169.977 218.396 169.043 215.496C168.143 212.563 167.693 209.046 167.693 204.946C167.693 200.913 168.143 197.429 169.043 194.496C169.977 191.563 171.327 189.313 173.093 187.746C174.893 186.179 177.027 185.396 179.493 185.396C182.027 185.396 184.177 186.196 185.943 187.796C187.71 189.363 189.043 191.613 189.943 194.546C190.877 197.479 191.343 200.946 191.343 204.946C191.343 209.013 190.877 212.513 189.943 215.446C189.043 218.346 187.71 220.596 185.943 222.196C184.177 223.763 182.027 224.546 179.493 224.546ZM179.493 220.246C181.227 220.246 182.643 219.596 183.743 218.296C184.877 216.963 185.71 215.146 186.243 212.846C186.777 210.546 187.043 207.913 187.043 204.946C187.043 202.046 186.76 199.446 186.193 197.146C185.66 194.846 184.827 193.029 183.693 191.696C182.593 190.363 181.193 189.696 179.493 189.696C177.793 189.696 176.393 190.363 175.293 191.696C174.193 192.996 173.36 194.796 172.793 197.096C172.26 199.396 171.993 202.013 171.993 204.946C171.993 207.946 172.26 210.596 172.793 212.896C173.36 215.163 174.193 216.963 175.293 218.296C176.427 219.596 177.827 220.246 179.493 220.246ZM208.155 224.546C205.689 224.546 203.555 223.763 201.755 222.196C199.989 220.629 198.639 218.396 197.705 215.496C196.805 212.563 196.355 209.046 196.355 204.946C196.355 200.913 196.805 197.429 197.705 194.496C198.639 191.563 199.989 189.313 201.755 187.746C203.555 186.179 205.689 185.396 208.155 185.396C210.689 185.396 212.839 186.196 214.605 187.796C216.372 189.363 217.705 191.613 218.605 194.546C219.539 197.479 220.005 200.946 220.005 204.946C220.005 209.013 219.539 212.513 218.605 215.446C217.705 218.346 216.372 220.596 214.605 222.196C212.839 223.763 210.689 224.546 208.155 224.546ZM208.155 220.246C209.889 220.246 211.305 219.596 212.405 218.296C213.539 216.963 214.372 215.146 214.905 212.846C215.439 210.546 215.705 207.913 215.705 204.946C215.705 202.046 215.422 199.446 214.855 197.146C214.322 194.846 213.489 193.029 212.355 191.696C211.255 190.363 209.855 189.696 208.155 189.696C206.455 189.696 205.055 190.363 203.955 191.696C202.855 192.996 202.022 194.796 201.455 197.096C200.922 199.396 200.655 202.013 200.655 204.946C200.655 207.946 200.922 210.596 201.455 212.896C202.022 215.163 202.855 216.963 203.955 218.296C205.089 219.596 206.489 220.246 208.155 220.246Z" fill="#D4F173"/>
<path d="M69.6896 905.691C66.8282 905.691 64.3536 904.783 62.2656 902.965C60.2162 901.148 58.6502 898.557 57.5676 895.193C56.5236 891.791 56.0016 887.711 56.0016 882.955C56.0016 878.277 56.5236 874.236 57.5676 870.833C58.6502 867.431 60.2162 864.821 62.2656 863.003C64.3536 861.186 66.8282 860.277 69.6896 860.277C72.6282 860.277 75.1222 861.205 77.1716 863.061C79.2209 864.879 80.7676 867.489 81.8116 870.891C82.8942 874.294 83.4356 878.315 83.4356 882.955C83.4356 887.673 82.8942 891.733 81.8116 895.135C80.7676 898.499 79.2209 901.109 77.1716 902.965C75.1222 904.783 72.6282 905.691 69.6896 905.691ZM69.6896 900.703C71.7002 900.703 73.3436 899.949 74.6196 898.441C75.9342 896.895 76.9009 894.787 77.5196 892.119C78.1382 889.451 78.4476 886.397 78.4476 882.955C78.4476 879.591 78.1189 876.575 77.4616 873.907C76.8429 871.239 75.8762 869.132 74.5616 867.585C73.2856 866.039 71.6616 865.265 69.6896 865.265C67.7176 865.265 66.0936 866.039 64.8176 867.585C63.5416 869.093 62.5749 871.181 61.9176 873.849C61.2989 876.517 60.9896 879.553 60.9896 882.955C60.9896 886.435 61.2989 889.509 61.9176 892.177C62.5749 894.807 63.5416 896.895 64.8176 898.441C66.1322 899.949 67.7562 900.703 69.6896 900.703Z" fill="#D4F173"/>
<path d="M270.269 1007.01C269.573 1007.01 268.974 1006.78 268.471 1006.32C268.007 1005.85 267.775 1005.25 267.775 1004.52C267.775 1003.86 268.007 1003.3 268.471 1002.84L285.697 982.538C286.741 981.378 287.553 980.179 288.133 978.942C288.752 977.666 289.061 976.467 289.061 975.346C289.061 973.567 288.713 972.001 288.017 970.648C287.36 969.294 286.413 968.25 285.175 967.516C283.938 966.742 282.507 966.356 280.883 966.356C279.337 966.356 277.906 966.762 276.591 967.574C275.315 968.386 274.31 969.468 273.575 970.822C272.841 972.175 272.473 973.683 272.473 975.346C272.473 976.003 272.241 976.583 271.777 977.086C271.313 977.55 270.733 977.782 270.037 977.782C269.341 977.782 268.742 977.55 268.239 977.086C267.775 976.583 267.543 976.003 267.543 975.346C267.543 972.755 268.123 970.435 269.283 968.386C270.482 966.298 272.087 964.654 274.097 963.456C276.108 962.257 278.37 961.658 280.883 961.658C283.435 961.658 285.678 962.238 287.611 963.398C289.583 964.558 291.111 966.162 292.193 968.212C293.276 970.261 293.817 972.639 293.817 975.346C293.817 976.622 293.605 977.859 293.179 979.058C292.754 980.218 292.174 981.358 291.439 982.48C290.705 983.562 289.931 984.568 289.119 985.496L274.735 1002.08H292.309C293.005 1002.08 293.585 1002.34 294.049 1002.84C294.552 1003.34 294.803 1003.9 294.803 1004.52C294.803 1005.25 294.552 1005.85 294.049 1006.32C293.585 1006.78 293.005 1007.01 292.309 1007.01H270.269ZM314.176 1007.01C311.315 1007.01 308.84 1006.11 306.752 1004.29C304.703 1002.47 303.137 999.88 302.054 996.516C301.01 993.113 300.488 989.034 300.488 984.278C300.488 979.599 301.01 975.558 302.054 972.156C303.137 968.753 304.703 966.143 306.752 964.326C308.84 962.508 311.315 961.6 314.176 961.6C317.115 961.6 319.609 962.528 321.658 964.384C323.707 966.201 325.254 968.811 326.298 972.214C327.381 975.616 327.922 979.638 327.922 984.278C327.922 988.995 327.381 993.055 326.298 996.458C325.254 999.822 323.707 1002.43 321.658 1004.29C319.609 1006.11 317.115 1007.01 314.176 1007.01ZM314.176 1002.03C316.187 1002.03 317.83 1001.27 319.106 999.764C320.421 998.217 321.387 996.11 322.006 993.442C322.625 990.774 322.934 987.719 322.934 984.278C322.934 980.914 322.605 977.898 321.948 975.23C321.329 972.562 320.363 970.454 319.048 968.908C317.772 967.361 316.148 966.588 314.176 966.588C312.204 966.588 310.58 967.361 309.304 968.908C308.028 970.416 307.061 972.504 306.404 975.172C305.785 977.84 305.476 980.875 305.476 984.278C305.476 987.758 305.785 990.832 306.404 993.5C307.061 996.129 308.028 998.217 309.304 999.764C310.619 1001.27 312.243 1002.03 314.176 1002.03ZM337.332 1007.01C336.636 1007.01 336.037 1006.78 335.534 1006.32C335.07 1005.85 334.838 1005.25 334.838 1004.52C334.838 1003.86 335.07 1003.3 335.534 1002.84L352.76 982.538C353.804 981.378 354.616 980.179 355.196 978.942C355.815 977.666 356.124 976.467 356.124 975.346C356.124 973.567 355.776 972.001 355.08 970.648C354.423 969.294 353.475 968.25 352.238 967.516C351.001 966.742 349.57 966.356 347.946 966.356C346.399 966.356 344.969 966.762 343.654 967.574C342.378 968.386 341.373 969.468 340.638 970.822C339.903 972.175 339.536 973.683 339.536 975.346C339.536 976.003 339.304 976.583 338.84 977.086C338.376 977.55 337.796 977.782 337.1 977.782C336.404 977.782 335.805 977.55 335.302 977.086C334.838 976.583 334.606 976.003 334.606 975.346C334.606 972.755 335.186 970.435 336.346 968.386C337.545 966.298 339.149 964.654 341.16 963.456C343.171 962.257 345.433 961.658 347.946 961.658C350.498 961.658 352.741 962.238 354.674 963.398C356.646 964.558 358.173 966.162 359.256 968.212C360.339 970.261 360.88 972.639 360.88 975.346C360.88 976.622 360.667 977.859 360.242 979.058C359.817 980.218 359.237 981.358 358.502 982.48C357.767 983.562 356.994 984.568 356.182 985.496L341.798 1002.08H359.372C360.068 1002.08 360.648 1002.34 361.112 1002.84C361.615 1003.34 361.866 1003.9 361.866 1004.52C361.866 1005.25 361.615 1005.85 361.112 1006.32C360.648 1006.78 360.068 1007.01 359.372 1007.01H337.332ZM381.238 1007.01C378.377 1007.01 375.902 1006.11 373.814 1004.29C371.765 1002.47 370.199 999.88 369.116 996.516C368.072 993.113 367.55 989.034 367.55 984.278C367.55 979.599 368.072 975.558 369.116 972.156C370.199 968.753 371.765 966.143 373.814 964.326C375.902 962.508 378.377 961.6 381.238 961.6C384.177 961.6 386.671 962.528 388.72 964.384C390.77 966.201 392.316 968.811 393.36 972.214C394.443 975.616 394.984 979.638 394.984 984.278C394.984 988.995 394.443 993.055 393.36 996.458C392.316 999.822 390.77 1002.43 388.72 1004.29C386.671 1006.11 384.177 1007.01 381.238 1007.01ZM381.238 1002.03C383.249 1002.03 384.892 1001.27 386.168 999.764C387.483 998.217 388.45 996.11 389.068 993.442C389.687 990.774 389.996 987.719 389.996 984.278C389.996 980.914 389.668 977.898 389.01 975.23C388.392 972.562 387.425 970.454 386.11 968.908C384.834 967.361 383.21 966.588 381.238 966.588C379.266 966.588 377.642 967.361 376.366 968.908C375.09 970.416 374.124 972.504 373.466 975.172C372.848 977.84 372.538 980.875 372.538 984.278C372.538 987.758 372.848 990.832 373.466 993.5C374.124 996.129 375.09 998.217 376.366 999.764C377.681 1001.27 379.305 1002.03 381.238 1002.03Z" fill="#D4F173"/>
<path d="M582.262 1007.01C581.566 1007.01 580.966 1006.78 580.464 1006.32C580 1005.85 579.768 1005.25 579.768 1004.52C579.768 1003.86 580 1003.3 580.464 1002.84L597.69 982.538C598.734 981.378 599.546 980.179 600.126 978.942C600.744 977.666 601.054 976.467 601.054 975.346C601.054 973.567 600.706 972.001 600.01 970.648C599.352 969.294 598.405 968.25 597.168 967.516C595.93 966.742 594.5 966.356 592.876 966.356C591.329 966.356 589.898 966.762 588.584 967.574C587.308 968.386 586.302 969.468 585.568 970.822C584.833 972.175 584.466 973.683 584.466 975.346C584.466 976.003 584.234 976.583 583.77 977.086C583.306 977.55 582.726 977.782 582.03 977.782C581.334 977.782 580.734 977.55 580.232 977.086C579.768 976.583 579.536 976.003 579.536 975.346C579.536 972.755 580.116 970.435 581.276 968.386C582.474 966.298 584.079 964.654 586.09 963.456C588.1 962.257 590.362 961.658 592.876 961.658C595.428 961.658 597.67 962.238 599.604 963.398C601.576 964.558 603.103 966.162 604.186 968.212C605.268 970.261 605.81 972.639 605.81 975.346C605.81 976.622 605.597 977.859 605.172 979.058C604.746 980.218 604.166 981.358 603.432 982.48C602.697 983.562 601.924 984.568 601.112 985.496L586.728 1002.08H604.302C604.998 1002.08 605.578 1002.34 606.042 1002.84C606.544 1003.34 606.796 1003.9 606.796 1004.52C606.796 1005.25 606.544 1005.85 606.042 1006.32C605.578 1006.78 604.998 1007.01 604.302 1007.01H582.262ZM626.168 1007.01C623.307 1007.01 620.832 1006.11 618.744 1004.29C616.695 1002.47 615.129 999.88 614.046 996.516C613.002 993.113 612.48 989.034 612.48 984.278C612.48 979.599 613.002 975.558 614.046 972.156C615.129 968.753 616.695 966.143 618.744 964.326C620.832 962.508 623.307 961.6 626.168 961.6C629.107 961.6 631.601 962.528 633.65 964.384C635.699 966.201 637.246 968.811 638.29 972.214C639.373 975.616 639.914 979.638 639.914 984.278C639.914 988.995 639.373 993.055 638.29 996.458C637.246 999.822 635.699 1002.43 633.65 1004.29C631.601 1006.11 629.107 1007.01 626.168 1007.01ZM626.168 1002.03C628.179 1002.03 629.822 1001.27 631.098 999.764C632.413 998.217 633.379 996.11 633.998 993.442C634.617 990.774 634.926 987.719 634.926 984.278C634.926 980.914 634.597 977.898 633.94 975.23C633.321 972.562 632.355 970.454 631.04 968.908C629.764 967.361 628.14 966.588 626.168 966.588C624.196 966.588 622.572 967.361 621.296 968.908C620.02 970.416 619.053 972.504 618.396 975.172C617.777 977.84 617.468 980.875 617.468 984.278C617.468 987.758 617.777 990.832 618.396 993.5C619.053 996.129 620.02 998.217 621.296 999.764C622.611 1001.27 624.235 1002.03 626.168 1002.03ZM649.324 1007.01C648.628 1007.01 648.029 1006.78 647.526 1006.32C647.062 1005.85 646.83 1005.25 646.83 1004.52C646.83 1003.86 647.062 1003.3 647.526 1002.84L664.752 982.538C665.796 981.378 666.608 980.179 667.188 978.942C667.807 977.666 668.116 976.467 668.116 975.346C668.116 973.567 667.768 972.001 667.072 970.648C666.415 969.294 665.467 968.25 664.23 967.516C662.993 966.742 661.562 966.356 659.938 966.356C658.391 966.356 656.961 966.762 655.646 967.574C654.37 968.386 653.365 969.468 652.63 970.822C651.895 972.175 651.528 973.683 651.528 975.346C651.528 976.003 651.296 976.583 650.832 977.086C650.368 977.55 649.788 977.782 649.092 977.782C648.396 977.782 647.797 977.55 647.294 977.086C646.83 976.583 646.598 976.003 646.598 975.346C646.598 972.755 647.178 970.435 648.338 968.386C649.537 966.298 651.141 964.654 653.152 963.456C655.163 962.257 657.425 961.658 659.938 961.658C662.49 961.658 664.733 962.238 666.666 963.398C668.638 964.558 670.165 966.162 671.248 968.212C672.331 970.261 672.872 972.639 672.872 975.346C672.872 976.622 672.659 977.859 672.234 979.058C671.809 980.218 671.229 981.358 670.494 982.48C669.759 983.562 668.986 984.568 668.174 985.496L653.79 1002.08H671.364C672.06 1002.08 672.64 1002.34 673.104 1002.84C673.607 1003.34 673.858 1003.9 673.858 1004.52C673.858 1005.25 673.607 1005.85 673.104 1006.32C672.64 1006.78 672.06 1007.01 671.364 1007.01H649.324ZM690.563 1007.01C689.867 1007.01 689.267 1006.78 688.765 1006.32C688.301 1005.85 688.069 1005.25 688.069 1004.52V967.574L682.791 969.488C682.288 969.72 681.824 969.836 681.399 969.836C680.664 969.836 680.065 969.604 679.601 969.14C679.137 968.676 678.905 968.096 678.905 967.4C678.905 966.897 679.021 966.433 679.253 966.008C679.523 965.582 679.949 965.273 680.529 965.08L689.461 961.948C689.654 961.87 689.847 961.812 690.041 961.774C690.273 961.696 690.466 961.658 690.621 961.658C691.355 961.658 691.935 961.909 692.361 962.412C692.825 962.876 693.057 963.456 693.057 964.152V1004.52C693.057 1005.25 692.805 1005.85 692.303 1006.32C691.839 1006.78 691.259 1007.01 690.563 1007.01Z" fill="#D4F173"/>
<path d="M895.258 1007.01C894.562 1007.01 893.962 1006.78 893.46 1006.32C892.996 1005.85 892.764 1005.25 892.764 1004.52C892.764 1003.86 892.996 1003.3 893.46 1002.84L910.686 982.538C911.73 981.378 912.542 980.179 913.122 978.942C913.74 977.666 914.05 976.467 914.05 975.346C914.05 973.567 913.702 972.001 913.006 970.648C912.348 969.294 911.401 968.25 910.164 967.516C908.926 966.742 907.496 966.356 905.872 966.356C904.325 966.356 902.894 966.762 901.58 967.574C900.304 968.386 899.298 969.468 898.564 970.822C897.829 972.175 897.462 973.683 897.462 975.346C897.462 976.003 897.23 976.583 896.766 977.086C896.302 977.55 895.722 977.782 895.026 977.782C894.33 977.782 893.73 977.55 893.228 977.086C892.764 976.583 892.532 976.003 892.532 975.346C892.532 972.755 893.112 970.435 894.272 968.386C895.47 966.298 897.075 964.654 899.086 963.456C901.096 962.257 903.358 961.658 905.872 961.658C908.424 961.658 910.666 962.238 912.6 963.398C914.572 964.558 916.099 966.162 917.182 968.212C918.264 970.261 918.806 972.639 918.806 975.346C918.806 976.622 918.593 977.859 918.168 979.058C917.742 980.218 917.162 981.358 916.428 982.48C915.693 983.562 914.92 984.568 914.108 985.496L899.724 1002.08H917.298C917.994 1002.08 918.574 1002.34 919.038 1002.84C919.54 1003.34 919.792 1003.9 919.792 1004.52C919.792 1005.25 919.54 1005.85 919.038 1006.32C918.574 1006.78 917.994 1007.01 917.298 1007.01H895.258ZM939.164 1007.01C936.303 1007.01 933.828 1006.11 931.74 1004.29C929.691 1002.47 928.125 999.88 927.042 996.516C925.998 993.113 925.476 989.034 925.476 984.278C925.476 979.599 925.998 975.558 927.042 972.156C928.125 968.753 929.691 966.143 931.74 964.326C933.828 962.508 936.303 961.6 939.164 961.6C942.103 961.6 944.597 962.528 946.646 964.384C948.696 966.201 950.242 968.811 951.286 972.214C952.369 975.616 952.91 979.638 952.91 984.278C952.91 988.995 952.369 993.055 951.286 996.458C950.242 999.822 948.696 1002.43 946.646 1004.29C944.597 1006.11 942.103 1007.01 939.164 1007.01ZM939.164 1002.03C941.175 1002.03 942.818 1001.27 944.094 999.764C945.409 998.217 946.376 996.11 946.994 993.442C947.613 990.774 947.922 987.719 947.922 984.278C947.922 980.914 947.594 977.898 946.936 975.23C946.318 972.562 945.351 970.454 944.036 968.908C942.76 967.361 941.136 966.588 939.164 966.588C937.192 966.588 935.568 967.361 934.292 968.908C933.016 970.416 932.05 972.504 931.392 975.172C930.774 977.84 930.464 980.875 930.464 984.278C930.464 987.758 930.774 990.832 931.392 993.5C932.05 996.129 933.016 998.217 934.292 999.764C935.607 1001.27 937.231 1002.03 939.164 1002.03ZM962.32 1007.01C961.624 1007.01 961.025 1006.78 960.522 1006.32C960.058 1005.85 959.826 1005.25 959.826 1004.52C959.826 1003.86 960.058 1003.3 960.522 1002.84L977.748 982.538C978.792 981.378 979.604 980.179 980.184 978.942C980.803 977.666 981.112 976.467 981.112 975.346C981.112 973.567 980.764 972.001 980.068 970.648C979.411 969.294 978.464 968.25 977.226 967.516C975.989 966.742 974.558 966.356 972.934 966.356C971.388 966.356 969.957 966.762 968.642 967.574C967.366 968.386 966.361 969.468 965.626 970.822C964.892 972.175 964.524 973.683 964.524 975.346C964.524 976.003 964.292 976.583 963.828 977.086C963.364 977.55 962.784 977.782 962.088 977.782C961.392 977.782 960.793 977.55 960.29 977.086C959.826 976.583 959.594 976.003 959.594 975.346C959.594 972.755 960.174 970.435 961.334 968.386C962.533 966.298 964.138 964.654 966.148 963.456C968.159 962.257 970.421 961.658 972.934 961.658C975.486 961.658 977.729 962.238 979.662 963.398C981.634 964.558 983.162 966.162 984.244 968.212C985.327 970.261 985.868 972.639 985.868 975.346C985.868 976.622 985.656 977.859 985.23 979.058C984.805 980.218 984.225 981.358 983.49 982.48C982.756 983.562 981.982 984.568 981.17 985.496L966.786 1002.08H984.36C985.056 1002.08 985.636 1002.34 986.1 1002.84C986.603 1003.34 986.854 1003.9 986.854 1004.52C986.854 1005.25 986.603 1005.85 986.1 1006.32C985.636 1006.78 985.056 1007.01 984.36 1007.01H962.32ZM996.135 1007.01C995.439 1007.01 994.839 1006.78 994.337 1006.32C993.873 1005.85 993.641 1005.25 993.641 1004.52C993.641 1003.86 993.873 1003.3 994.337 1002.84L1011.56 982.538C1012.61 981.378 1013.42 980.179 1014 978.942C1014.62 977.666 1014.93 976.467 1014.93 975.346C1014.93 973.567 1014.58 972.001 1013.88 970.648C1013.23 969.294 1012.28 968.25 1011.04 967.516C1009.8 966.742 1008.37 966.356 1006.75 966.356C1005.2 966.356 1003.77 966.762 1002.46 967.574C1001.18 968.386 1000.18 969.468 999.441 970.822C998.706 972.175 998.339 973.683 998.339 975.346C998.339 976.003 998.107 976.583 997.643 977.086C997.179 977.55 996.599 977.782 995.903 977.782C995.207 977.782 994.607 977.55 994.105 977.086C993.641 976.583 993.409 976.003 993.409 975.346C993.409 972.755 993.989 970.435 995.149 968.386C996.347 966.298 997.952 964.654 999.963 963.456C1001.97 962.257 1004.24 961.658 1006.75 961.658C1009.3 961.658 1011.54 962.238 1013.48 963.398C1015.45 964.558 1016.98 966.162 1018.06 968.212C1019.14 970.261 1019.68 972.639 1019.68 975.346C1019.68 976.622 1019.47 977.859 1019.04 979.058C1018.62 980.218 1018.04 981.358 1017.3 982.48C1016.57 983.562 1015.8 984.568 1014.98 985.496L1000.6 1002.08H1018.17C1018.87 1002.08 1019.45 1002.34 1019.91 1002.84C1020.42 1003.34 1020.67 1003.9 1020.67 1004.52C1020.67 1005.25 1020.42 1005.85 1019.91 1006.32C1019.45 1006.78 1018.87 1007.01 1018.17 1007.01H996.135Z" fill="#D4F173"/>
<path d="M1216.28 1007.01C1215.58 1007.01 1214.98 1006.78 1214.48 1006.32C1214.02 1005.85 1213.79 1005.25 1213.79 1004.52C1213.79 1003.86 1214.02 1003.3 1214.48 1002.84L1231.71 982.538C1232.75 981.378 1233.56 980.179 1234.14 978.942C1234.76 977.666 1235.07 976.467 1235.07 975.346C1235.07 973.567 1234.72 972.001 1234.03 970.648C1233.37 969.294 1232.42 968.25 1231.19 967.516C1229.95 966.742 1228.52 966.356 1226.89 966.356C1225.35 966.356 1223.92 966.762 1222.6 967.574C1221.33 968.386 1220.32 969.468 1219.59 970.822C1218.85 972.175 1218.48 973.683 1218.48 975.346C1218.48 976.003 1218.25 976.583 1217.79 977.086C1217.32 977.55 1216.74 977.782 1216.05 977.782C1215.35 977.782 1214.75 977.55 1214.25 977.086C1213.79 976.583 1213.55 976.003 1213.55 975.346C1213.55 972.755 1214.13 970.435 1215.29 968.386C1216.49 966.298 1218.1 964.654 1220.11 963.456C1222.12 962.257 1224.38 961.658 1226.89 961.658C1229.45 961.658 1231.69 962.238 1233.62 963.398C1235.59 964.558 1237.12 966.162 1238.2 968.212C1239.29 970.261 1239.83 972.639 1239.83 975.346C1239.83 976.622 1239.61 977.859 1239.19 979.058C1238.76 980.218 1238.18 981.358 1237.45 982.48C1236.71 983.562 1235.94 984.568 1235.13 985.496L1220.75 1002.08H1238.32C1239.02 1002.08 1239.6 1002.34 1240.06 1002.84C1240.56 1003.34 1240.81 1003.9 1240.81 1004.52C1240.81 1005.25 1240.56 1005.85 1240.06 1006.32C1239.6 1006.78 1239.02 1007.01 1238.32 1007.01H1216.28ZM1260.19 1007.01C1257.32 1007.01 1254.85 1006.11 1252.76 1004.29C1250.71 1002.47 1249.15 999.88 1248.06 996.516C1247.02 993.113 1246.5 989.034 1246.5 984.278C1246.5 979.599 1247.02 975.558 1248.06 972.156C1249.15 968.753 1250.71 966.143 1252.76 964.326C1254.85 962.508 1257.32 961.6 1260.19 961.6C1263.12 961.6 1265.62 962.528 1267.67 964.384C1269.72 966.201 1271.26 968.811 1272.31 972.214C1273.39 975.616 1273.93 979.638 1273.93 984.278C1273.93 988.995 1273.39 993.055 1272.31 996.458C1271.26 999.822 1269.72 1002.43 1267.67 1004.29C1265.62 1006.11 1263.12 1007.01 1260.19 1007.01ZM1260.19 1002.03C1262.2 1002.03 1263.84 1001.27 1265.12 999.764C1266.43 998.217 1267.4 996.11 1268.02 993.442C1268.63 990.774 1268.94 987.719 1268.94 984.278C1268.94 980.914 1268.61 977.898 1267.96 975.23C1267.34 972.562 1266.37 970.454 1265.06 968.908C1263.78 967.361 1262.16 966.588 1260.19 966.588C1258.21 966.588 1256.59 967.361 1255.31 968.908C1254.04 970.416 1253.07 972.504 1252.41 975.172C1251.79 977.84 1251.49 980.875 1251.49 984.278C1251.49 987.758 1251.79 990.832 1252.41 993.5C1253.07 996.129 1254.04 998.217 1255.31 999.764C1256.63 1001.27 1258.25 1002.03 1260.19 1002.03ZM1283.34 1007.01C1282.65 1007.01 1282.05 1006.78 1281.54 1006.32C1281.08 1005.85 1280.85 1005.25 1280.85 1004.52C1280.85 1003.86 1281.08 1003.3 1281.54 1002.84L1298.77 982.538C1299.81 981.378 1300.63 980.179 1301.21 978.942C1301.82 977.666 1302.13 976.467 1302.13 975.346C1302.13 973.567 1301.79 972.001 1301.09 970.648C1300.43 969.294 1299.49 968.25 1298.25 967.516C1297.01 966.742 1295.58 966.356 1293.96 966.356C1292.41 966.356 1290.98 966.762 1289.66 967.574C1288.39 968.386 1287.38 969.468 1286.65 970.822C1285.91 972.175 1285.55 973.683 1285.55 975.346C1285.55 976.003 1285.31 976.583 1284.85 977.086C1284.39 977.55 1283.81 977.782 1283.11 977.782C1282.41 977.782 1281.81 977.55 1281.31 977.086C1280.85 976.583 1280.62 976.003 1280.62 975.346C1280.62 972.755 1281.2 970.435 1282.36 968.386C1283.55 966.298 1285.16 964.654 1287.17 963.456C1289.18 962.257 1291.44 961.658 1293.96 961.658C1296.51 961.658 1298.75 962.238 1300.68 963.398C1302.66 964.558 1304.18 966.162 1305.27 968.212C1306.35 970.261 1306.89 972.639 1306.89 975.346C1306.89 976.622 1306.68 977.859 1306.25 979.058C1305.83 980.218 1305.25 981.358 1304.51 982.48C1303.78 983.562 1303 984.568 1302.19 985.496L1287.81 1002.08H1305.38C1306.08 1002.08 1306.66 1002.34 1307.12 1002.84C1307.62 1003.34 1307.88 1003.9 1307.88 1004.52C1307.88 1005.25 1307.62 1005.85 1307.12 1006.32C1306.66 1006.78 1306.08 1007.01 1305.38 1007.01H1283.34ZM1328.29 1007.19C1325.51 1007.19 1323.03 1006.61 1320.87 1005.45C1318.7 1004.25 1316.98 1002.63 1315.71 1000.58C1314.47 998.488 1313.85 996.148 1313.85 993.558C1313.85 992.823 1314.06 992.204 1314.49 991.702C1314.91 991.199 1315.47 990.948 1316.17 990.948C1316.87 990.948 1317.43 991.199 1317.85 991.702C1318.28 992.204 1318.49 992.823 1318.49 993.558C1318.49 995.259 1318.9 996.806 1319.71 998.198C1320.56 999.59 1321.7 1000.69 1323.13 1001.5C1324.6 1002.32 1326.24 1002.72 1328.06 1002.72C1330.92 1002.72 1333.18 1001.93 1334.85 1000.34C1336.51 998.758 1337.34 996.632 1337.34 993.964C1337.34 992.185 1336.95 990.6 1336.18 989.208C1335.41 987.816 1334.34 986.733 1332.99 985.96C1331.68 985.186 1330.19 984.8 1328.52 984.8C1327.83 984.8 1327.25 984.568 1326.78 984.104C1326.32 983.601 1326.09 983.002 1326.09 982.306C1326.09 981.61 1326.32 981.03 1326.78 980.566C1327.25 980.102 1327.83 979.87 1328.52 979.87C1329.8 979.87 1330.98 979.56 1332.06 978.942C1333.14 978.284 1334.03 977.414 1334.73 976.332C1335.43 975.249 1335.77 974.07 1335.77 972.794C1335.77 970.822 1335.1 969.198 1333.74 967.922C1332.39 966.607 1330.61 965.95 1328.41 965.95C1326.86 965.95 1325.45 966.259 1324.17 966.878C1322.9 967.496 1321.89 968.328 1321.16 969.372C1320.46 970.377 1320.11 971.537 1320.11 972.852C1320.11 973.586 1319.9 974.205 1319.48 974.708C1319.05 975.172 1318.51 975.404 1317.85 975.404C1317.16 975.404 1316.6 975.172 1316.17 974.708C1315.74 974.244 1315.53 973.664 1315.53 972.968C1315.53 970.802 1316.09 968.85 1317.21 967.11C1318.34 965.37 1319.86 963.997 1321.8 962.992C1323.73 961.986 1325.93 961.484 1328.41 961.484C1330.65 961.484 1332.68 961.986 1334.5 962.992C1336.32 963.958 1337.75 965.312 1338.79 967.052C1339.87 968.753 1340.41 970.667 1340.41 972.794C1340.41 974.147 1340.09 975.442 1339.43 976.68C1338.77 977.878 1337.92 978.942 1336.88 979.87C1335.83 980.798 1334.71 981.532 1333.51 982.074C1335.48 982.692 1337.13 983.601 1338.44 984.8C1339.76 985.998 1340.7 987.39 1341.28 988.976C1341.9 990.561 1342.21 992.243 1342.21 994.022C1342.21 996.535 1341.59 998.797 1340.36 1000.81C1339.12 1002.78 1337.44 1004.35 1335.31 1005.51C1333.18 1006.63 1330.84 1007.19 1328.29 1007.19Z" fill="#D4F173"/>
<path d="M67.5262 680.998C66.9928 680.998 66.5262 680.798 66.1262 680.398C65.7262 679.998 65.5262 679.481 65.5262 678.848V671.798H48.0262C47.3928 671.798 46.8928 671.615 46.5262 671.248C46.1595 670.848 45.9428 670.398 45.8762 669.898C45.8428 669.365 45.9762 668.881 46.2762 668.448L65.8762 642.798C66.0762 642.531 66.3095 642.315 66.5762 642.148C66.8762 641.981 67.2428 641.898 67.6762 641.898C68.2428 641.898 68.7095 642.115 69.0762 642.548C69.4762 642.948 69.6762 643.465 69.6762 644.098V667.948H73.3262C73.8928 667.948 74.3762 668.098 74.7762 668.398C75.2095 668.698 75.4262 669.198 75.4262 669.898C75.4262 670.398 75.2095 670.848 74.7762 671.248C74.3762 671.615 73.8928 671.798 73.3262 671.798H69.6762V678.848C69.6762 679.481 69.4762 679.998 69.0762 680.398C68.6762 680.798 68.1595 680.998 67.5262 680.998ZM50.3762 669.448L49.4762 667.948H65.5262V646.798L66.6762 648.098L50.3762 669.448ZM91.8469 680.998C89.3802 680.998 87.2469 680.215 85.4469 678.648C83.6802 677.081 82.3302 674.848 81.3969 671.948C80.4969 669.015 80.0469 665.498 80.0469 661.398C80.0469 657.365 80.4969 653.881 81.3969 650.948C82.3302 648.015 83.6802 645.765 85.4469 644.198C87.2469 642.631 89.3802 641.848 91.8469 641.848C94.3802 641.848 96.5302 642.648 98.2969 644.248C100.064 645.815 101.397 648.065 102.297 650.998C103.23 653.931 103.697 657.398 103.697 661.398C103.697 665.465 103.23 668.965 102.297 671.898C101.397 674.798 100.064 677.048 98.2969 678.648C96.5302 680.215 94.3802 680.998 91.8469 680.998ZM91.8469 676.698C93.5802 676.698 94.9969 676.048 96.0969 674.748C97.2302 673.415 98.0635 671.598 98.5969 669.298C99.1302 666.998 99.3969 664.365 99.3969 661.398C99.3969 658.498 99.1135 655.898 98.5469 653.598C98.0135 651.298 97.1802 649.481 96.0469 648.148C94.9469 646.815 93.5469 646.148 91.8469 646.148C90.1469 646.148 88.7469 646.815 87.6469 648.148C86.5469 649.448 85.7135 651.248 85.1469 653.548C84.6135 655.848 84.3469 658.465 84.3469 661.398C84.3469 664.398 84.6135 667.048 85.1469 669.348C85.7135 671.615 86.5469 673.415 87.6469 674.748C88.7802 676.048 90.1802 676.698 91.8469 676.698ZM135.157 680.998C132.691 680.998 130.557 680.215 128.757 678.648C126.991 677.081 125.641 674.848 124.707 671.948C123.807 669.015 123.357 665.498 123.357 661.398C123.357 657.365 123.807 653.881 124.707 650.948C125.641 648.015 126.991 645.765 128.757 644.198C130.557 642.631 132.691 641.848 135.157 641.848C137.691 641.848 139.841 642.648 141.607 644.248C143.374 645.815 144.707 648.065 145.607 650.998C146.541 653.931 147.007 657.398 147.007 661.398C147.007 665.465 146.541 668.965 145.607 671.898C144.707 674.798 143.374 677.048 141.607 678.648C139.841 680.215 137.691 680.998 135.157 680.998ZM135.157 676.698C136.891 676.698 138.307 676.048 139.407 674.748C140.541 673.415 141.374 671.598 141.907 669.298C142.441 666.998 142.707 664.365 142.707 661.398C142.707 658.498 142.424 655.898 141.857 653.598C141.324 651.298 140.491 649.481 139.357 648.148C138.257 646.815 136.857 646.148 135.157 646.148C133.457 646.148 132.057 646.815 130.957 648.148C129.857 649.448 129.024 651.248 128.457 653.548C127.924 655.848 127.657 658.465 127.657 661.398C127.657 664.398 127.924 667.048 128.457 669.348C129.024 671.615 129.857 673.415 130.957 674.748C132.091 676.048 133.491 676.698 135.157 676.698ZM163.82 680.998C161.353 680.998 159.22 680.215 157.42 678.648C155.653 677.081 154.303 674.848 153.37 671.948C152.47 669.015 152.02 665.498 152.02 661.398C152.02 657.365 152.47 653.881 153.37 650.948C154.303 648.015 155.653 645.765 157.42 644.198C159.22 642.631 161.353 641.848 163.82 641.848C166.353 641.848 168.503 642.648 170.27 644.248C172.036 645.815 173.37 648.065 174.27 650.998C175.203 653.931 175.67 657.398 175.67 661.398C175.67 665.465 175.203 668.965 174.27 671.898C173.37 674.798 172.036 677.048 170.27 678.648C168.503 680.215 166.353 680.998 163.82 680.998ZM163.82 676.698C165.553 676.698 166.97 676.048 168.07 674.748C169.203 673.415 170.036 671.598 170.57 669.298C171.103 666.998 171.37 664.365 171.37 661.398C171.37 658.498 171.086 655.898 170.52 653.598C169.986 651.298 169.153 649.481 168.02 648.148C166.92 646.815 165.52 646.148 163.82 646.148C162.12 646.148 160.72 646.815 159.62 648.148C158.52 649.448 157.686 651.248 157.12 653.548C156.586 655.848 156.32 658.465 156.32 661.398C156.32 664.398 156.586 667.048 157.12 669.348C157.686 671.615 158.52 673.415 159.62 674.748C160.753 676.048 162.153 676.698 163.82 676.698ZM192.482 680.998C190.015 680.998 187.882 680.215 186.082 678.648C184.315 677.081 182.965 674.848 182.032 671.948C181.132 669.015 180.682 665.498 180.682 661.398C180.682 657.365 181.132 653.881 182.032 650.948C182.965 648.015 184.315 645.765 186.082 644.198C187.882 642.631 190.015 641.848 192.482 641.848C195.015 641.848 197.165 642.648 198.932 644.248C200.698 645.815 202.032 648.065 202.932 650.998C203.865 653.931 204.332 657.398 204.332 661.398C204.332 665.465 203.865 668.965 202.932 671.898C202.032 674.798 200.698 677.048 198.932 678.648C197.165 680.215 195.015 680.998 192.482 680.998ZM192.482 676.698C194.215 676.698 195.632 676.048 196.732 674.748C197.865 673.415 198.698 671.598 199.232 669.298C199.765 666.998 200.032 664.365 200.032 661.398C200.032 658.498 199.748 655.898 199.182 653.598C198.648 651.298 197.815 649.481 196.682 648.148C195.582 646.815 194.182 646.148 192.482 646.148C190.782 646.148 189.382 646.815 188.282 648.148C187.182 649.448 186.348 651.248 185.782 653.548C185.248 655.848 184.982 658.465 184.982 661.398C184.982 664.398 185.248 667.048 185.782 669.348C186.348 671.615 187.182 673.415 188.282 674.748C189.415 676.048 190.815 676.698 192.482 676.698Z" fill="#D4F173"/>
<path d="M59.8262 445.348C57.5928 445.348 55.5928 444.831 53.8262 443.798C52.0928 442.731 50.7095 441.298 49.6762 439.498C48.6762 437.698 48.1762 435.665 48.1762 433.398C48.1762 431.198 48.6762 429.231 49.6762 427.498C50.7095 425.765 52.0928 424.398 53.8262 423.398C55.5928 422.398 57.5928 421.898 59.8262 421.898C62.0595 421.898 64.0428 422.398 65.7762 423.398C67.5428 424.398 68.9262 425.765 69.9262 427.498C70.9595 429.231 71.4595 431.198 71.4262 433.398C71.4262 435.665 70.9095 437.698 69.8762 439.498C68.8762 441.298 67.4928 442.731 65.7262 443.798C63.9928 444.831 62.0262 445.348 59.8262 445.348ZM59.8262 441.548C61.2262 441.548 62.4762 441.181 63.5762 440.448C64.7095 439.715 65.5928 438.748 66.2262 437.548C66.8595 436.315 67.1762 434.931 67.1762 433.398C67.2095 431.931 66.9095 430.615 66.2762 429.448C65.6428 428.281 64.7595 427.365 63.6262 426.698C62.5262 426.031 61.2595 425.698 59.8262 425.698C58.4262 425.698 57.1595 426.031 56.0262 426.698C54.9262 427.365 54.0428 428.281 53.3762 429.448C52.7428 430.615 52.4262 431.931 52.4262 433.398C52.4262 434.931 52.7428 436.315 53.3762 437.548C54.0095 438.748 54.8762 439.715 55.9762 440.448C57.1095 441.181 58.3928 441.548 59.8262 441.548ZM59.8262 425.148C57.9928 425.148 56.3262 424.731 54.8262 423.898C53.3595 423.065 52.2095 421.948 51.3762 420.548C50.5428 419.115 50.1262 417.481 50.1262 415.648C50.1262 413.848 50.5428 412.231 51.3762 410.798C52.2095 409.331 53.3595 408.181 54.8262 407.348C56.3262 406.481 57.9928 406.048 59.8262 406.048C61.6928 406.015 63.3595 406.415 64.8262 407.248C66.2928 408.081 67.4428 409.231 68.2762 410.698C69.1428 412.165 69.5595 413.815 69.5262 415.648C69.5262 417.481 69.0928 419.115 68.2262 420.548C67.3595 421.948 66.1928 423.065 64.7262 423.898C63.2928 424.731 61.6595 425.148 59.8262 425.148ZM59.8262 421.548C60.8928 421.548 61.8428 421.281 62.6762 420.748C63.5095 420.215 64.1762 419.498 64.6762 418.598C65.1762 417.698 65.4262 416.681 65.4262 415.548C65.4595 414.481 65.2262 413.531 64.7262 412.698C64.2595 411.831 63.5928 411.165 62.7262 410.698C61.8928 410.198 60.9262 409.948 59.8262 409.948C58.2262 409.948 56.8928 410.481 55.8262 411.548C54.7595 412.615 54.2095 413.948 54.1762 415.548C54.1428 417.248 54.6595 418.681 55.7262 419.848C56.8262 420.981 58.1928 421.548 59.8262 421.548ZM88.8195 445.248C86.3529 445.248 84.2195 444.465 82.4195 442.898C80.6529 441.331 79.3029 439.098 78.3695 436.198C77.4695 433.265 77.0195 429.748 77.0195 425.648C77.0195 421.615 77.4695 418.131 78.3695 415.198C79.3029 412.265 80.6529 410.015 82.4195 408.448C84.2195 406.881 86.3529 406.098 88.8195 406.098C91.3529 406.098 93.5029 406.898 95.2695 408.498C97.0362 410.065 98.3695 412.315 99.2695 415.248C100.203 418.181 100.67 421.648 100.67 425.648C100.67 429.715 100.203 433.215 99.2695 436.148C98.3695 439.048 97.0362 441.298 95.2695 442.898C93.5029 444.465 91.3529 445.248 88.8195 445.248ZM88.8195 440.948C90.5529 440.948 91.9695 440.298 93.0695 438.998C94.2029 437.665 95.0362 435.848 95.5695 433.548C96.1029 431.248 96.3695 428.615 96.3695 425.648C96.3695 422.748 96.0862 420.148 95.5195 417.848C94.9862 415.548 94.1529 413.731 93.0195 412.398C91.9195 411.065 90.5195 410.398 88.8195 410.398C87.1195 410.398 85.7195 411.065 84.6195 412.398C83.5195 413.698 82.6862 415.498 82.1195 417.798C81.5862 420.098 81.3195 422.715 81.3195 425.648C81.3195 428.648 81.5862 431.298 82.1195 433.598C82.6862 435.865 83.5195 437.665 84.6195 438.998C85.7529 440.298 87.1529 440.948 88.8195 440.948ZM132.13 445.248C129.663 445.248 127.53 444.465 125.73 442.898C123.963 441.331 122.613 439.098 121.68 436.198C120.78 433.265 120.33 429.748 120.33 425.648C120.33 421.615 120.78 418.131 121.68 415.198C122.613 412.265 123.963 410.015 125.73 408.448C127.53 406.881 129.663 406.098 132.13 406.098C134.663 406.098 136.813 406.898 138.58 408.498C140.347 410.065 141.68 412.315 142.58 415.248C143.513 418.181 143.98 421.648 143.98 425.648C143.98 429.715 143.513 433.215 142.58 436.148C141.68 439.048 140.347 441.298 138.58 442.898C136.813 444.465 134.663 445.248 132.13 445.248ZM132.13 440.948C133.863 440.948 135.28 440.298 136.38 438.998C137.513 437.665 138.347 435.848 138.88 433.548C139.413 431.248 139.68 428.615 139.68 425.648C139.68 422.748 139.397 420.148 138.83 417.848C138.297 415.548 137.463 413.731 136.33 412.398C135.23 411.065 133.83 410.398 132.13 410.398C130.43 410.398 129.03 411.065 127.93 412.398C126.83 413.698 125.997 415.498 125.43 417.798C124.897 420.098 124.63 422.715 124.63 425.648C124.63 428.648 124.897 431.298 125.43 433.598C125.997 435.865 126.83 437.665 127.93 438.998C129.063 440.298 130.463 440.948 132.13 440.948ZM160.792 445.248C158.326 445.248 156.192 444.465 154.392 442.898C152.626 441.331 151.276 439.098 150.342 436.198C149.442 433.265 148.992 429.748 148.992 425.648C148.992 421.615 149.442 418.131 150.342 415.198C151.276 412.265 152.626 410.015 154.392 408.448C156.192 406.881 158.326 406.098 160.792 406.098C163.326 406.098 165.476 406.898 167.242 408.498C169.009 410.065 170.342 412.315 171.242 415.248C172.176 418.181 172.642 421.648 172.642 425.648C172.642 429.715 172.176 433.215 171.242 436.148C170.342 439.048 169.009 441.298 167.242 442.898C165.476 444.465 163.326 445.248 160.792 445.248ZM160.792 440.948C162.526 440.948 163.942 440.298 165.042 438.998C166.176 437.665 167.009 435.848 167.542 433.548C168.076 431.248 168.342 428.615 168.342 425.648C168.342 422.748 168.059 420.148 167.492 417.848C166.959 415.548 166.126 413.731 164.992 412.398C163.892 411.065 162.492 410.398 160.792 410.398C159.092 410.398 157.692 411.065 156.592 412.398C155.492 413.698 154.659 415.498 154.092 417.798C153.559 420.098 153.292 422.715 153.292 425.648C153.292 428.648 153.559 431.298 154.092 433.598C154.659 435.865 155.492 437.665 156.592 438.998C157.726 440.298 159.126 440.948 160.792 440.948ZM189.454 445.248C186.988 445.248 184.854 444.465 183.054 442.898C181.288 441.331 179.938 439.098 179.004 436.198C178.104 433.265 177.654 429.748 177.654 425.648C177.654 421.615 178.104 418.131 179.004 415.198C179.938 412.265 181.288 410.015 183.054 408.448C184.854 406.881 186.988 406.098 189.454 406.098C191.988 406.098 194.138 406.898 195.904 408.498C197.671 410.065 199.004 412.315 199.904 415.248C200.838 418.181 201.304 421.648 201.304 425.648C201.304 429.715 200.838 433.215 199.904 436.148C199.004 439.048 197.671 441.298 195.904 442.898C194.138 444.465 191.988 445.248 189.454 445.248ZM189.454 440.948C191.188 440.948 192.604 440.298 193.704 438.998C194.838 437.665 195.671 435.848 196.204 433.548C196.738 431.248 197.004 428.615 197.004 425.648C197.004 422.748 196.721 420.148 196.154 417.848C195.621 415.548 194.788 413.731 193.654 412.398C192.554 411.065 191.154 410.398 189.454 410.398C187.754 410.398 186.354 411.065 185.254 412.398C184.154 413.698 183.321 415.498 182.754 417.798C182.221 420.098 181.954 422.715 181.954 425.648C181.954 428.648 182.221 431.298 182.754 433.598C183.321 435.865 184.154 437.665 185.254 438.998C186.388 440.298 187.788 440.948 189.454 440.948Z" fill="#D4F173"/>
<path d="M273.805 209.639H1505.73" stroke="#0DB131" stroke-width="9"/>
<path d="M273.805 927.925H1505.73" stroke="#0DB131" stroke-width="9"/>
<path d="M273.805 671.107H1505.73" stroke="#0DB131" stroke-width="9"/>
<path d="M273.805 437.363H1505.73" stroke="#0DB131" stroke-width="9"/>
<defs>
<filter id="filter0_d_416_35" x="0.700001" y="0.700001" width="1641.59" height="1484.09" filterUnits="userSpaceOnUse" color-interpolation-filters="sRGB">
<feFlood flood-opacity="0" result="BackgroundImageFix"/>
<feColorMatrix in="SourceAlpha" type="matrix" values="0 0 0 0 0 0 0 0 0 0 0 0 0 0 0 0 0 0 127 0" result="hardAlpha"/>
<feOffset dx="17" dy="29"/>
<feGaussianBlur stdDeviation="18.65"/>
<feComposite in2="hardAlpha" operator="out"/>
<feColorMatrix type="matrix" values="0 0 0 0 0 0 0 0 0 0 0 0 0 0 0 0 0 0 0.25 0"/>
<feBlend mode="normal" in2="BackgroundImageFix" result="effect1_dropShadow_416_35"/>
<feBlend mode="normal" in="SourceGraphic" in2="effect1_dropShadow_416_35" result="shape"/>
</filter>
<linearGradient id="paint0_linear_416_35" x1="1511.31" y1="377.335" x2="343.46" y2="1542.19" gradientUnits="userSpaceOnUse">
<stop offset="0.0178556" stop-color="#445298" stop-opacity="0.93"/>
<stop offset="1" stop-color="#313C41"/>
</linearGradient>
</defs>
</svg>
