<svg width="104" height="128" viewBox="0 0 104 128" fill="none" xmlns="http://www.w3.org/2000/svg">
<path d="M46.5781 6.76245C48.2697 20.1968 31.9695 35.5553 40.0128 47.8391C42.7024 51.9468 46.5219 54.8467 50.2656 58.0314C51.1064 58.7466 53.4238 60.6069 53.7655 61.4347C54.5235 63.2709 56.2623 64.4845 57.7477 65.7164C59.3461 67.042 60.0171 69.0901 61.7331 70.2959C62.5783 70.8899 66.1132 75.4161 66.418 76.3524C67.0224 78.2091 68.5701 80.2009 70.0487 81.3776C74.1365 84.6308 68.8382 90.4316 68.4716 94.4484C68.144 98.0388 66.0767 102.963 64.7326 106.197C63.0816 110.17 63.179 113.605 61.574 117.467" stroke="#8CDD5F" stroke-width="9.43218" stroke-linecap="round"/>
<path d="M98.6016 28.3828C87.8862 36.6607 88.4988 59.0483 74.1183 62.0126C69.3095 63.0039 64.5597 62.3424 59.6616 61.9354C58.5615 61.844 55.6082 61.5138 54.7804 61.8556C52.9443 62.6136 50.8575 62.2372 48.9366 62.0534C46.8694 61.8556 44.9444 62.8247 42.8792 62.4591C41.862 62.2791 36.1603 62.9665 35.2816 63.4109C33.5393 64.2922 31.0357 64.6004 29.1586 64.3824C23.9692 63.7799 23.5953 71.6273 21.0068 74.7207C18.693 77.4857 16.6611 82.4245 15.317 85.6586C13.6659 89.6313 11.1624 91.9855 9.55743 95.8472" stroke="#8CDD5F" stroke-width="9.43218" stroke-linecap="round"/>
<path d="M4.79297 99.9685C15.4142 104.383 26.3322 113.277 38.1312 114.756C44.7376 115.584 50.9497 120.677 56.9227 123.159" stroke="#8CDD5F" stroke-width="9.43218" stroke-linecap="round"/>
<path d="M47.1186 5.46198C58.5943 10.2314 70.07 15.0008 81.5458 19.7702C84.1522 20.8534 91.9359 22.6831 93.0161 25.2999" stroke="#8CDD5F" stroke-width="9.43218" stroke-linecap="round"/>
<path d="M42.7139 41.7585C41.2035 45.3928 44.4794 51.4918 47.7797 53.0147C50.1821 54.1233 52.0339 56.308 54.5364 57.348C57.0039 58.3735 59.2778 56.7207 61.7737 57.2632C63.1045 57.5525 68.359 56.8943 69.8198 56.4555C71.2101 56.0378 78.4968 56.6775 73.2058 53.711C67.9417 50.7596 60.8566 49.7854 55.1808 47.7448C50.3764 46.0174 45.6127 44.4884 40.8729 42.5185" stroke="#8CDD5F" stroke-width="9.43218" stroke-linecap="round"/>
<path d="M11.6176 98.2284C12.5752 98.5071 17.0498 98.5075 17.7655 98.1145C19.3546 97.2419 22.7496 97.7265 24.5448 97.5005C27.7225 97.1004 32.5126 95.474 35.504 96.7172C37.3138 97.4694 39.1647 96.0436 40.5413 96.5231C42.7823 97.3036 43.2211 99.9982 44.7468 101.491C47.3166 104.004 47.4186 108.318 49.6906 111.002C51.7362 113.418 54.0642 116.003 55.9444 118.176" stroke="#8CDD5F" stroke-width="9.43218" stroke-linecap="round"/>
<path d="M41.3095 107.518C38.4579 106.333 29.5588 101.08 26.3645 103.214C24.9028 104.19 24.5835 103.617 26.7178 104.504C29.7041 105.745 32.6905 106.986 35.6768 108.228" stroke="#8CDD5F" stroke-width="9.43218" stroke-linecap="round"/>
<path d="M50.4804 67.1022C49.371 69.7716 50.0891 72.1396 48.8082 74.7954C48.3019 75.845 46.701 74.6308 45.9369 74.3647C44.868 73.9924 44.5143 75.9528 44.2057 76.6954" stroke="#8CDD5F" stroke-width="9.43218" stroke-linecap="round"/>
</svg>
