<svg width="324" height="131" viewBox="0 0 324 131" fill="none" xmlns="http://www.w3.org/2000/svg">
<path d="M7 28.3238C107.673 23.1558 207.498 5.20104 308.572 7.14675C315.669 7.28336 321.896 7.81747 311.438 11.0278C291.8 17.0561 270.894 19.6392 250.753 23.2615C202.819 31.8821 154.59 40.8323 108.226 56.0817C105.862 56.8595 98.7524 58.4646 101.231 58.6972C111.668 59.6767 122.823 58.6972 133.259 58.6972C160.961 58.6972 188.663 58.6972 216.364 58.6972C235.11 58.6972 254.651 57.2541 273.341 59.3721C282.444 60.4037 280.504 63.4767 273.341 67.1342C253.321 77.3569 232.063 85.5686 211.307 94.1328C189.177 103.264 167.637 116.466 145.059 124" stroke="#8CDD5F" stroke-width="13" stroke-linecap="round"/>
</svg>
